<?xml version="1.0" encoding="UTF-8" standalone="no"?>
<!-- Created with Inkscape (http://www.inkscape.org/) -->

<svg
   xmlns:dc="http://purl.org/dc/elements/1.1/"
   xmlns:cc="http://creativecommons.org/ns#"
   xmlns:rdf="http://www.w3.org/1999/02/22-rdf-syntax-ns#"
   xmlns:svg="http://www.w3.org/2000/svg"
   xmlns="http://www.w3.org/2000/svg"
   xmlns:sodipodi="http://sodipodi.sourceforge.net/DTD/sodipodi-0.dtd"
   xmlns:inkscape="http://www.inkscape.org/namespaces/inkscape"
   width="1227.2727"
   height="410.15897"
   id="svg3158"
   version="1.1"
   inkscape:version="0.48.4 r9939"
   sodipodi:docname="home.svg">
  <defs
     id="defs3160" />
  <sodipodi:namedview
     id="base"
     pagecolor="#7cffff"
     bordercolor="#666666"
     borderopacity="1.0"
     inkscape:pageopacity="0"
     inkscape:pageshadow="2"
     inkscape:zoom="0.35"
     inkscape:cx="619.35062"
     inkscape:cy="199.36519"
     inkscape:document-units="px"
     inkscape:current-layer="g3125"
     showgrid="false"
     fit-margin-top="0"
     fit-margin-left="0"
     fit-margin-right="0"
     fit-margin-bottom="0"
     inkscape:window-width="1440"
     inkscape:window-height="868"
     inkscape:window-x="0"
     inkscape:window-y="150"
     inkscape:window-maximized="1" />
  <metadata
     id="metadata3163">
    <rdf:RDF>
      <cc:Work
         rdf:about="">
        <dc:format>image/svg+xml</dc:format>
        <dc:type
           rdf:resource="http://purl.org/dc/dcmitype/StillImage" />
        <dc:title />
      </cc:Work>
    </rdf:RDF>
  </metadata>
  <g
     inkscape:label="Capa 1"
     inkscape:groupmode="layer"
     id="layer1"
     transform="translate(263.63633,-327.28271)">
    <g
       transform="matrix(1.25,0,0,-1.25,-537.32176,965.10105)"
       id="g3125">
      <g
         transform="translate(223.8193,264.4385)"
         id="g3065">
        <path
           inkscape:connector-curvature="0"
           id="path3067"
           style="fill:none;stroke:#ffffff;stroke-width:1;stroke-linecap:butt;stroke-linejoin:miter;stroke-miterlimit:10;stroke-opacity:1;stroke-dasharray:2.002, 2.002;stroke-dashoffset:0"
           d="M 0,0 967.769,0" />
      </g>
      <g
         transform="translate(223.9316,305.0146)"
         id="g3081">
        <path
           inkscape:connector-curvature="0"
           id="path3083"
           style="fill:none;stroke:#60c2da;stroke-width:5;stroke-linecap:butt;stroke-linejoin:miter;stroke-miterlimit:10;stroke-opacity:1;stroke-dasharray:none"
           d="m 0,0 71.811,10.805 70.575,0 57.537,37.859 17.191,0 112.759,-37.859 79.402,0 23.488,7.745 46.438,5.971 29.451,12.645 19.658,16.156 26.114,2.108 57.149,-18.264 20.29,-1.404 60.317,0 30.959,20.371 27.223,0 52.312,-41.445 53.378,-9.629 35.229,0 75.262,35.013" />
      </g>
      <g
         transform="matrix(1,0,0,-1,214.5781,446.9736)"
         style=""
         id="text3101">
        <path
           d="m 23.424487,-8.6530752 0,-17.0439358 16.869126,0 0,-8.128647 c 0,-1.048856 -0.437026,-1.136262 -2.534739,-1.136262 l -14.334387,0 0,-16.169888 18.355008,0 c 0.0874,2.359927 0.874048,6.817576 1.660691,8.390861 l 8.478265,0 0,-15.47065 c 0,-1.398475 -0.524431,-1.573286 -3.408787,-1.573286 l -44.139424,0 0,8.653075 5.943526,0 0,42.4787328 -5.943526,0 0,8.6530752 44.663853,0 c 2.97176,0 3.408787,-0.174811 3.408787,-1.5732864 l 0,-15.6454596 -8.478265,0 c -0.786643,1.573285 -1.573287,6.205744 -1.660692,8.5656708 l -18.879436,0"
           style="font-size:87.40480042px;font-variant:normal;font-weight:bold;font-stretch:normal;writing-mode:lr-tb;fill:#ffffff;fill-opacity:1;fill-rule:nonzero;stroke:none;font-family:Movistar Headline;-inkscape-font-specification:MovistarHeadline-Bold"
           id="path3025" />
        <path
           d="m 63.892911,-59.784883 c -2.884356,0 -3.408788,0.174811 -3.408788,1.573286 l 0,15.732864 8.478266,0 c 0.786642,-1.573285 1.573286,-6.293148 1.660691,-8.653075 l 10.313767,0 0,42.4787328 -5.943527,0 0,8.6530752 24.997773,0 0,-8.6530752 -5.943526,0 0,-42.4787328 10.313763,0 c 0.0874,2.359927 0.87405,7.07979 1.66069,8.653075 l 8.47827,0 0,-15.732864 c 0,-1.398475 -0.52443,-1.573286 -3.40879,-1.573286 l -47.198589,0"
           style="font-size:87.40480042px;font-variant:normal;font-weight:bold;font-stretch:normal;writing-mode:lr-tb;fill:#ffffff;fill-opacity:1;fill-rule:nonzero;stroke:none;font-family:Movistar Headline;-inkscape-font-specification:MovistarHeadline-Bold"
           id="path3027" />
        <path
           d="m 154.53169,0 24.56074,0 0,-8.6530752 -5.15688,0 -17.83058,-48.9466878 c -0.61183,-1.835499 -1.39848,-2.18512 -4.28283,-2.18512 l -9.78934,0 -18.0928,51.1318078 -5.06947,0 0,8.6530752 21.23936,0 0,-8.6530752 -5.5065,0 2.79695,-8.6530748 19.49127,0 2.88436,8.6530748 -5.24428,0 0,8.6530752 m -7.42941,-46.674163 6.81757,20.627532 -13.54774,0 6.73017,-20.627532"
           style="font-size:87.40480042px;font-variant:normal;font-weight:bold;font-stretch:normal;writing-mode:lr-tb;fill:#ffffff;fill-opacity:1;fill-rule:nonzero;stroke:none;font-family:Movistar Headline;-inkscape-font-specification:MovistarHeadline-Bold"
           id="path3029" />
        <path
           d="m 204.43982,-8.6530752 0,-14.2469828 c 2.44733,0.524429 7.51682,1.136263 10.9256,1.136263 15.47064,0 19.9283,-8.303468 19.9283,-19.84089 0,-6.555353 -1.6607,-10.925603 -4.89467,-13.722554 -3.93321,-3.408783 -10.13897,-4.457644 -19.57868,-4.457644 l -25.43479,0 0,8.653075 5.94352,0 0,42.4787328 -5.94352,0 0,8.6530752 25.08517,0 0,-8.6530752 -6.03093,0 m 0,-42.4787328 6.81758,0 c 4.19542,0 6.81757,0.69924 8.39086,2.18512 1.66069,1.573285 2.35993,4.108029 2.35993,7.516813 0,4.020616 -0.87405,6.730171 -2.53474,8.478265 -1.57329,1.48588 -3.75841,2.097715 -7.42941,2.097715 l -7.60422,0 0,-20.277913"
           style="font-size:87.40480042px;font-variant:normal;font-weight:bold;font-stretch:normal;writing-mode:lr-tb;fill:#ffffff;fill-opacity:1;fill-rule:nonzero;stroke:none;font-family:Movistar Headline;-inkscape-font-specification:MovistarHeadline-Bold"
           id="path3031" />
        <path
           d="m 275.15031,0 24.56075,0 0,-8.6530752 -5.15688,0 -17.83058,-48.9466878 c -0.61183,-1.835499 -1.39848,-2.18512 -4.28283,-2.18512 l -9.78934,0 -18.0928,51.1318078 -5.06947,0 0,8.6530752 21.23936,0 0,-8.6530752 -5.5065,0 2.79695,-8.6530748 19.49127,0 2.88436,8.6530748 -5.24429,0 0,8.6530752 m -7.4294,-46.674163 6.81757,20.627532 -13.54774,0 6.73017,-20.627532"
           style="font-size:87.40480042px;font-variant:normal;font-weight:bold;font-stretch:normal;writing-mode:lr-tb;fill:#ffffff;fill-opacity:1;fill-rule:nonzero;stroke:none;font-family:Movistar Headline;-inkscape-font-specification:MovistarHeadline-Bold"
           id="path3033" />
        <path
           d="m 318.76531,-30.416871 c 0,-4.28283 -2.18512,-5.943526 -6.38055,-5.943526 l -0.61183,0 c -4.19543,0 -6.38055,1.660696 -6.38055,5.943526 l 0,1.136263 c 0,4.282831 2.18512,6.030931 6.38055,6.030931 l 0.61183,0 c 4.19543,0 6.38055,-1.7481 6.38055,-6.030931 l 0,-1.136263 m 0,24.5607494 c 0,-4.3702354 -2.18512,-6.0309314 -6.38055,-6.0309314 l -0.61183,0 c -4.19543,0 -6.38055,1.660696 -6.38055,6.0309314 l 0,1.0488576 c 0,4.37023563 2.18512,6.0309312 6.38055,6.0309312 l 0.61183,0 c 4.19543,0 6.38055,-1.66069557 6.38055,-6.0309312 l 0,-1.0488576"
           style="font-size:87.40480042px;font-variant:normal;font-weight:bold;font-stretch:normal;writing-mode:lr-tb;fill:#ffffff;fill-opacity:1;fill-rule:nonzero;stroke:none;font-family:Movistar Headline;-inkscape-font-specification:MovistarHeadline-Bold"
           id="path3035" />
      </g>
      <g
         transform="matrix(1,0,0,-1,573.3748,446.9736)"
         style=""
         id="text3105">
        <path
           d="m 42.915757,-5.7687168 -5.331693,0 0,5.7687168 18.092794,0 0,-5.7687168 -4.894669,0 -19.054246,-52.1806662 c -0.524429,-1.398475 -0.87405,-1.8355 -2.447335,-1.8355 l -6.55536,0 L 4.9820736,-5.7687168 0,-5.7687168 0,0 l 16.694317,0 0,-5.7687168 -4.807264,0 3.845811,-12.1492672 22.987463,0 4.19543,12.1492672 m -16.257293,-46.1497342 9.964147,27.969536 -18.966841,0 9.002694,-27.969536"
           style="font-size:87.40480042px;font-variant:normal;font-weight:normal;font-stretch:normal;writing-mode:lr-tb;fill:#ffffff;fill-opacity:1;fill-rule:nonzero;stroke:none;font-family:Movistar Headline;-inkscape-font-specification:MovistarHeadline"
           id="path2994" />
        <path
           d="m 70.535675,-58.561216 c 0,-1.748095 -0.262215,-2.796955 -0.961453,-3.496192 -0.874047,-0.874047 -2.185122,-1.223668 -3.933216,-1.223668 -2.010309,0 -6.205743,0.34962 -8.128647,0.524429 l 0,5.244288 5.943527,0 0,57.512359 7.079789,0 0,-58.561216"
           style="font-size:87.40480042px;font-variant:normal;font-weight:normal;font-stretch:normal;writing-mode:lr-tb;fill:#ffffff;fill-opacity:1;fill-rule:nonzero;stroke:none;font-family:Movistar Headline;-inkscape-font-specification:MovistarHeadline"
           id="path2996" />
        <path
           d="m 85.744107,-42.915757 -7.429408,1.311072 0,4.19543 7.429408,0 0,24.822964 c 0,5.5939014 0.87405,8.740482 3.146573,10.9255998 1.922903,1.83549897 4.894673,2.8843584 9.264908,2.8843584 3.059162,0 7.254602,-0.69923927 9.614532,-1.5732864 l 0,-4.6324544 -7.95384,0 c -3.14657,0 -4.807265,-0.6118349 -5.768717,-1.8355008 -1.048857,-1.3110707 -1.223667,-3.2339806 -1.223667,-6.4679556 l 0,-24.123725 11.624834,0 0,-5.419097 -11.624834,0 0,-11.187815 c -2.185118,0.08741 -5.069481,0.611835 -7.079789,1.223668 l 0,9.876742"
           style="font-size:87.40480042px;font-variant:normal;font-weight:normal;font-stretch:normal;writing-mode:lr-tb;fill:#ffffff;fill-opacity:1;fill-rule:nonzero;stroke:none;font-family:Movistar Headline;-inkscape-font-specification:MovistarHeadline"
           id="path2998" />
        <path
           d="m 151.99695,-21.414176 c 0,-14.072159 -6.81759,-22.637843 -19.57868,-22.637843 -12.76108,0 -19.57867,8.565684 -19.57867,22.637843 0,14.0721587 6.81759,22.6378432 19.57867,22.6378432 12.76109,0 19.57868,-8.5656845 19.57868,-22.6378432 m -7.342,0 c 0,10.488565 -3.4088,16.3446976 -12.23668,16.3446976 -8.82787,0 -12.23667,-5.8561326 -12.23667,-16.3446976 0,-10.488566 3.4088,-16.344698 12.23667,-16.344698 8.82788,0 12.23668,5.856132 12.23668,16.344698"
           style="font-size:87.40480042px;font-variant:normal;font-weight:normal;font-stretch:normal;writing-mode:lr-tb;fill:#ffffff;fill-opacity:1;fill-rule:nonzero;stroke:none;font-family:Movistar Headline;-inkscape-font-specification:MovistarHeadline"
           id="path3000" />
        <path
           d="m 205.57608,-2.5347392 c 0.43703,1.83549896 1.57329,3.059168 4.45765,3.059168 2.27252,0 5.06948,-0.26221475 8.04124,-0.6118336 l 0,-5.244288 -5.76872,0 0,-53.2295232 c 0,-1.748095 -0.26221,-2.796955 -0.96145,-3.496192 -0.87405,-0.874047 -2.18512,-1.223668 -3.93322,-1.223668 -2.0103,0 -6.20574,0.34962 -8.12864,0.524429 l 0,5.244288 5.94352,0 0,16.606912 c -3.67099,-1.835499 -8.12865,-3.146572 -11.97445,-3.146572 -10.48857,0 -16.86913,8.565684 -16.86913,22.375628 0,14.3343734 5.59392,22.9000582 16.3447,22.9000582 4.19542,0 8.74048,-1.57328867 12.8485,-3.8458112 l 0,0.087405 m -10.9256,-2.7095488 c -7.16718,0 -10.9256,-3.9332286 -10.9256,-16.519507 0,-10.488566 3.4962,-15.820269 11.36263,-15.820269 2.79695,0 6.64277,0.699239 10.13895,1.573286 l 0,28.7561796 c -3.05916,1.2236659 -7.42941,2.0103104 -10.57598,2.0103104"
           style="font-size:87.40480042px;font-variant:normal;font-weight:normal;font-stretch:normal;writing-mode:lr-tb;fill:#ffffff;fill-opacity:1;fill-rule:nonzero;stroke:none;font-family:Movistar Headline;-inkscape-font-specification:MovistarHeadline"
           id="path3002" />
        <path
           d="m 259.76706,-19.229056 c 0.69924,0 0.96146,-0.17481 0.96146,-0.786643 l 0,-2.53474 c 0,-13.198111 -6.29316,-21.50158 -17.74318,-21.50158 -11.97444,0 -18.70463,9.177517 -18.70463,22.550438 0,7.167187 1.7481,13.198129 5.50651,17.2187458 3.23397,3.4961885 8.56567,5.5065024 15.82027,5.5065024 4.37023,0 9.70193,-0.78664425 13.46034,-1.8355008 l 0,-4.37024 -10.8382,0 c -6.90497,0 -10.75079,-1.2236699 -13.19812,-3.8458112 -2.27253,-2.3599272 -3.23398,-5.7687212 -3.40879,-10.4011712 l 28.14434,0 m -28.05694,-5.593907 c 0.26222,-7.254591 3.67101,-13.28553 11.27522,-13.28553 7.07978,0 10.40117,4.982082 11.01301,13.28553 l -22.28823,0"
           style="font-size:87.40480042px;font-variant:normal;font-weight:normal;font-stretch:normal;writing-mode:lr-tb;fill:#ffffff;fill-opacity:1;fill-rule:nonzero;stroke:none;font-family:Movistar Headline;-inkscape-font-specification:MovistarHeadline"
           id="path3004" />
        <path
           d="m 300.4103,-5.7687168 0,-48.2474502 6.03093,0 0,-5.768716 -19.66608,0 0,5.768716 6.03093,0 0,48.2474502 -6.03093,0 0,5.7687168 40.03139,0 c 1.7481,0 2.01032,-0.34961999 2.01032,-1.1362624 l 0,-12.9359106 -5.15689,0 c -0.78664,2.097713 -1.39847,5.6813148 -1.39847,8.3034562 l -21.8512,0"
           style="font-size:87.40480042px;font-variant:normal;font-weight:normal;font-stretch:normal;writing-mode:lr-tb;fill:#ffffff;fill-opacity:1;fill-rule:nonzero;stroke:none;font-family:Movistar Headline;-inkscape-font-specification:MovistarHeadline"
           id="path3006" />
        <path
           d="m 342.62681,-40.206208 c 1.22367,0 1.57329,-0.174811 1.66069,-1.223667 l 1.22367,-18.355008 -4.54505,0 c -1.8355,0 -2.53474,0.52443 -2.44734,2.272524 l 0.78665,17.306151 3.32138,0"
           style="font-size:87.40480042px;font-variant:normal;font-weight:normal;font-stretch:normal;writing-mode:lr-tb;fill:#ffffff;fill-opacity:1;fill-rule:nonzero;stroke:none;font-family:Movistar Headline;-inkscape-font-specification:MovistarHeadline"
           id="path3008" />
        <path
           d="m 395.41933,-5.7687168 -5.3317,0 0,5.7687168 18.0928,0 0,-5.7687168 -4.89467,0 -19.05425,-52.1806662 c -0.52443,-1.398475 -0.87405,-1.8355 -2.44733,-1.8355 l -6.55536,0 -17.74318,54.0161662 -4.98207,0 0,5.7687168 16.69432,0 0,-5.7687168 -4.80727,0 3.84581,-12.1492672 22.98747,0 4.19543,12.1492672 m -16.2573,-46.1497342 9.96415,27.969536 -18.96684,0 9.00269,-27.969536"
           style="font-size:87.40480042px;font-variant:normal;font-weight:normal;font-stretch:normal;writing-mode:lr-tb;fill:#ffffff;fill-opacity:1;fill-rule:nonzero;stroke:none;font-family:Movistar Headline;-inkscape-font-specification:MovistarHeadline"
           id="path3010" />
        <path
           d="m 451.88281,-5.3316928 0,-24.7355582 c 0,-4.80726 -0.87405,-7.866435 -3.05917,-10.226362 -2.18512,-2.359927 -5.85612,-3.758406 -10.75079,-3.758406 -4.89466,0 -9.87674,1.485883 -14.15958,3.583596 -0.52442,-2.010308 -1.8355,-2.709548 -4.71986,-2.709548 -2.27252,0 -5.24429,0.262214 -8.21605,0.611833 l 0,5.156883 5.94353,0 0,37.409255 7.07979,0 0,-35.835968 c 4.45764,-1.048857 8.56567,-1.660691 11.79965,-1.660691 3.23397,0 5.68131,0.52443 7.07979,1.922905 1.39847,1.398476 1.9229,3.583601 1.9229,7.167194 l 0,24.1237248 c 0,1.7480942 0.26222,2.7969543 0.96145,3.496192 0.87405,0.87404713 2.18513,1.2236672 3.93322,1.2236672 2.01031,0 5.94353,-0.34961937 7.86643,-0.5244288 l 0,-5.244288 -5.68131,0"
           style="font-size:87.40480042px;font-variant:normal;font-weight:normal;font-stretch:normal;writing-mode:lr-tb;fill:#ffffff;fill-opacity:1;fill-rule:nonzero;stroke:none;font-family:Movistar Headline;-inkscape-font-specification:MovistarHeadline"
           id="path3012" />
        <path
           d="m 499.95544,-27.969536 c 0,-6.817568 -2.97177,-11.887056 -8.56567,-14.421792 l 5.5065,-9.964147 c -1.57328,-1.048857 -4.28283,-2.097716 -6.29314,-2.622144 L 486.4077,-43.7024 c -1.22367,-0.17481 -2.53474,-0.349619 -3.93322,-0.349619 -11.45001,0 -17.48096,6.293155 -17.48096,16.082483 0,5.94352 2.18513,10.575984 6.46796,13.372934 -3.23398,4.457641 -4.89467,8.0412444 -4.89467,10.4885764 0,0.9614518 0.17481,1.7480966 0.69924,2.3599296 -2.62214,2.9717602 -3.84581,5.9435297 -3.84581,9.177504 0,8.216043 6.99239,13.460339 18.52981,13.460339 l 0.96146,0 c 11.97444,0 20.1031,-4.19544 20.1031,-14.4217918 0,-4.1954262 -1.22367,-7.3420053 -3.49619,-9.4397184 -2.53474,-2.3599273 -6.55537,-3.4087872 -12.58629,-3.4087872 l -13.28553,0 1.57328,-6.5553596 c 2.09772,0.699237 4.54506,1.048857 7.2546,1.048857 11.45002,0 17.48096,-6.293155 17.48096,-16.082483 m -6.81757,0 c 0,6.293139 -2.62215,10.226362 -10.66339,10.226362 -8.04123,0 -10.66338,-3.933223 -10.66338,-10.226362 0,-6.293139 2.62215,-10.226362 10.66338,-10.226362 8.04124,0 10.66339,3.933223 10.66339,10.226362 m -20.54013,28.1443456 13.89736,0 c 3.93322,0 6.29315,0.43702531 7.77903,1.748096 1.22367,1.0488566 1.8355,2.9717652 1.8355,4.9820736 0,5.3316878 -4.19544,7.7790268 -13.11072,7.7790268 l -0.17481,0 c -8.91528,0 -12.41148,-3.233983 -12.41148,-8.7404796 0,-1.7480942 0.34962,-3.5835989 0.78664,-5.681312 l 0,-0.1748096 c 0.43703,0.08740471 0.87405,0.0874048 1.39848,0.0874048"
           style="font-size:87.40480042px;font-variant:normal;font-weight:normal;font-stretch:normal;writing-mode:lr-tb;fill:#ffffff;fill-opacity:1;fill-rule:nonzero;stroke:none;font-family:Movistar Headline;-inkscape-font-specification:MovistarHeadline"
           id="path3014" />
        <path
           d="m 519.18452,-58.561216 c 0,-1.748095 -0.26221,-2.796955 -0.96145,-3.496192 -0.87405,-0.874047 -2.18512,-1.223668 -3.93322,-1.223668 -2.01031,0 -6.20574,0.34962 -8.12864,0.524429 l 0,5.244288 5.94352,0 0,57.512359 7.07979,0 0,-58.561216"
           style="font-size:87.40480042px;font-variant:normal;font-weight:normal;font-stretch:normal;writing-mode:lr-tb;fill:#ffffff;fill-opacity:1;fill-rule:nonzero;stroke:none;font-family:Movistar Headline;-inkscape-font-specification:MovistarHeadline"
           id="path3016" />
        <path
           d="m 537.88913,-51.656237 c 2.62214,0 4.28284,-1.311075 4.28284,-4.632454 l 0,-0.262215 c 0,-3.321379 -1.6607,-4.632454 -4.28284,-4.632454 l -0.52443,0 c -2.62214,0 -4.28283,1.311075 -4.28283,4.632454 l 0,0.262215 c 0,3.321379 1.66069,4.632454 4.28283,4.632454 l 0.52443,0 m 3.671,13.198125 c 0,-1.748094 -0.26221,-2.796954 -0.96145,-3.496192 -0.87405,-0.874047 -2.18512,-1.223667 -3.93321,-1.223667 -2.01031,0 -6.38056,0.349619 -8.30346,0.524428 l 0,5.244288 6.11834,0 0,37.409255 7.07978,0 0,-38.458112"
           style="font-size:87.40480042px;font-variant:normal;font-weight:normal;font-stretch:normal;writing-mode:lr-tb;fill:#ffffff;fill-opacity:1;fill-rule:nonzero;stroke:none;font-family:Movistar Headline;-inkscape-font-specification:MovistarHeadline"
           id="path3018" />
        <path
           d="m 563.67353,-35.748563 c 3.7584,-0.874047 6.90498,-1.136263 12.06186,-1.136263 l 2.27253,0 0,-5.331693 c 0,-1.398475 -0.69924,-1.8355 -2.09772,-1.8355 -3.32138,0 -8.82789,2.185122 -12.32407,4.282835 -0.34962,-2.796951 -1.83551,-3.408787 -4.71986,-3.408787 -2.27253,0 -5.24429,0.262214 -8.21605,0.611833 l 0,5.156883 5.94352,0 0,37.409255 7.07979,0 0,-35.748563"
           style="font-size:87.40480042px;font-variant:normal;font-weight:normal;font-stretch:normal;writing-mode:lr-tb;fill:#ffffff;fill-opacity:1;fill-rule:nonzero;stroke:none;font-family:Movistar Headline;-inkscape-font-specification:MovistarHeadline"
           id="path3020" />
        <path
           d="m 593.91564,-38.458112 c 0,-1.748094 -0.26221,-2.796954 -0.96145,-3.496192 -0.87405,-0.874047 -2.18512,-1.223667 -3.93321,-1.223667 -1.92291,0 -5.94353,0.349619 -7.86644,0.524428 l 0,5.244288 5.68132,0 0,24.648154 c 0,4.8072594 0.87405,7.8664345 3.05916,10.2263618 2.18512,2.35992724 5.85613,3.7584064 10.75079,3.7584064 4.80726,0 9.61454,-1.4858837 13.89737,-3.5835968 0.43702,1.48588011 1.7481,2.7095488 4.63245,2.7095488 2.27252,0 5.24429,-0.26221475 8.21605,-0.6118336 l 0,-5.0694784 -5.94352,0 0,-37.4966592 -12.7611,0 0,5.419097 5.68131,0 0,30.416871 c -4.28283,1.1362612 -8.21606,1.6606912 -11.45003,1.6606912 -3.23398,0 -5.68131,-0.5244302 -7.07979,-1.9229056 -1.39848,-1.3984754 -1.92291,-3.5836006 -1.92291,-7.1671936 l 0,-24.03632"
           style="font-size:87.40480042px;font-variant:normal;font-weight:normal;font-stretch:normal;writing-mode:lr-tb;fill:#ffffff;fill-opacity:1;fill-rule:nonzero;stroke:none;font-family:Movistar Headline;-inkscape-font-specification:MovistarHeadline"
           id="path3022" />
      </g>
      <g
         transform="matrix(1,0,0,-1,224.04926,187.6455)"
         style=""
         id="text3109">
        <path
           d="m 9.7054058,-2.622025 0,-22.267645 c 0,-1.604521 -0.5478876,-2.113274 -2.3089474,-2.113274 -0.9783665,0 -3.9134716,0.195674 -5.5179928,0.352213 l 0,2.348082 4.6178947,0 0,21.680624 -4.6961641,0 0,2.622025 11.8578148,0 0,-2.622025 -3.9526052,0"
           style="font-size:39.13470078px;font-variant:normal;font-weight:normal;font-stretch:normal;writing-mode:lr-tb;fill:#ffffff;fill-opacity:1;fill-rule:nonzero;stroke:none;font-family:Movistar Headline;-inkscape-font-specification:MovistarHeadline"
           id="path3038" />
        <path
           d="m 32.599206,-6.8877073 0,6.8877073 3.16991,0 0,-6.8877073 3.013372,0 0,-2.5828903 -3.013372,0 0,-7.1616504 -3.16991,0 0,7.1616504 -8.766173,0 5.83107,-17.2975374 -2.348082,0 c -0.547885,0 -0.743559,0.07827 -0.939233,0.626155 l -5.400589,15.73215 c -0.391346,1.1740394 -0.58702,1.8393312 -0.58702,2.5437551 0,0.352212 0.03914,0.7044249 0.117404,0.9783676 l 12.092623,0"
           style="font-size:39.13470078px;font-variant:normal;font-weight:normal;font-stretch:normal;writing-mode:lr-tb;fill:#ffffff;fill-opacity:1;fill-rule:nonzero;stroke:none;font-family:Movistar Headline;-inkscape-font-specification:MovistarHeadline"
           id="path3040" />
        <path
           d="m 57.880223,-6.8877073 0,6.8877073 3.169911,0 0,-6.8877073 3.013372,0 0,-2.5828903 -3.013372,0 0,-7.1616504 -3.169911,0 0,7.1616504 -8.766173,0 5.83107,-17.2975374 -2.348082,0 c -0.547885,0 -0.743559,0.07827 -0.939232,0.626155 l -5.400589,15.73215 c -0.391347,1.1740394 -0.587021,1.8393312 -0.587021,2.5437551 0,0.352212 0.03914,0.7044249 0.117404,0.9783676 l 12.092623,0"
           style="font-size:39.13470078px;font-variant:normal;font-weight:normal;font-stretch:normal;writing-mode:lr-tb;fill:#ffffff;fill-opacity:1;fill-rule:nonzero;stroke:none;font-family:Movistar Headline;-inkscape-font-specification:MovistarHeadline"
           id="path3042" />
        <path
           d="m 74.121124,5.5179928 c 0.547886,0 0.704425,-0.1565392 0.821829,-0.5870205 0.391347,-1.4479825 0.821829,-4.38308817 0.821829,-6.0658786 0,-1.9567331 -0.704426,-2.7002944 -2.230678,-2.7002944 l -0.03914,0 c -1.17404,0 -1.99587,0.5478874 -1.99587,2.1132739 l 0,0.1174041 c 0,1.33057846 0.704426,1.99586994 1.839331,2.23067791 l 0,4.89183759 0.782694,0"
           style="font-size:39.13470078px;font-variant:normal;font-weight:normal;font-stretch:normal;writing-mode:lr-tb;fill:#ffffff;fill-opacity:1;fill-rule:nonzero;stroke:none;font-family:Movistar Headline;-inkscape-font-specification:MovistarHeadline"
           id="path3044" />
        <path
           d="m 102.45464,-13.344933 c 0,-8.844433 -2.622028,-13.931953 -9.235786,-13.931953 -6.613758,0 -9.235789,5.08752 -9.235789,13.931953 0,8.8444336 2.622031,13.89281881 9.235789,13.89281881 6.613758,0 9.235786,-5.04838521 9.235786,-13.89281881 m -3.365581,0 c 0,7.3964511 -1.369719,10.9577163 -5.870205,10.9577163 -4.500486,0 -5.870205,-3.5612652 -5.870205,-10.9577163 0,-7.396451 1.369719,-10.996851 5.870205,-10.996851 4.500486,0 5.870205,3.6004 5.870205,10.996851"
           style="font-size:39.13470078px;font-variant:normal;font-weight:normal;font-stretch:normal;writing-mode:lr-tb;fill:#ffffff;fill-opacity:1;fill-rule:nonzero;stroke:none;font-family:Movistar Headline;-inkscape-font-specification:MovistarHeadline"
           id="path3046" />
        <path
           d="m 126.01373,-26.22025 c 0,-0.782693 -0.1174,-1.25231 -0.43048,-1.565388 -0.39135,-0.391346 -0.97837,-0.547885 -1.76106,-0.547885 -0.9001,0 -2.77857,0.156539 -3.63953,0.234808 l 0,2.348082 2.66116,0 0,25.750633 3.16991,0 0,-6.6528991 3.16991,-3.1307761 5.36146,8.6487689 c 0.62615,1.01750118 1.09577,1.2523104 2.30894,1.2523104 0.58702,0 2.23068,-0.15653888 2.97424,-0.2348082 l 0,-2.2698126 -2.42635,0 -6.06588,-9.6271363 4.57876,-4.735299 2.7003,0 0,-2.426351 -2.54376,0 c -1.40885,0 -1.95674,0.15654 -3.01337,1.330579 l -7.04425,7.826941 0,-16.201767"
           style="font-size:39.13470078px;font-variant:normal;font-weight:normal;font-stretch:normal;writing-mode:lr-tb;fill:#ffffff;fill-opacity:1;fill-rule:nonzero;stroke:none;font-family:Movistar Headline;-inkscape-font-specification:MovistarHeadline"
           id="path3048" />
        <path
           d="m 171.80134,-1.9176003 c 0,0.7826932 0.11741,1.2523107 0.43048,1.56538799 0.39135,0.39134662 0.97837,0.54788581 1.76106,0.54788581 0.9001,0 2.66116,-0.15653888 3.52213,-0.2348082 l 0,-2.348082 -2.54376,0 0,-11.0751203 c 0,-2.152406 -0.39135,-3.522124 -1.36971,-4.57876 -0.97837,-1.056636 -2.7003,-1.682792 -4.65703,-1.682792 -2.07414,0 -4.34396,0.626156 -6.96598,1.956735 -1.1349,-1.408848 -2.89597,-1.956735 -4.8527,-1.956735 -2.07414,0 -4.34396,0.74356 -5.90934,1.643657 -0.23481,-0.900097 -0.82183,-1.25231 -2.11328,-1.25231 -1.0175,0 -2.34808,0.117404 -3.67866,0.273943 l 0,2.308947 2.66116,0 0,16.749652 3.16991,0 0,-16.045227 c 1.76106,-0.508751 3.36559,-0.74356 4.89184,-0.74356 1.21318,0 2.34808,0.234809 2.97424,0.860964 0.62615,0.626154 0.86096,1.604524 0.86096,3.209045 l 0,12.718778 3.16991,0 0,-13.344933 c 0,-1.056636 -0.0783,-1.917601 -0.31308,-2.622025 2.11328,-0.626155 3.75694,-0.821829 5.12665,-0.821829 1.21317,0 2.34808,0.234809 2.97424,0.860964 0.62615,0.626154 0.86096,1.604524 0.86096,3.209045 l 0,10.8011777"
           style="font-size:39.13470078px;font-variant:normal;font-weight:normal;font-stretch:normal;writing-mode:lr-tb;fill:#ffffff;fill-opacity:1;fill-rule:nonzero;stroke:none;font-family:Movistar Headline;-inkscape-font-specification:MovistarHeadline"
           id="path3050" />
        <path
           d="m 486.67913,-2.5828903 0,-8.4530957 c 1.44798,0.195674 3.6004,0.430482 5.55713,0.430482 5.36145,0 8.10088,-2.856839 8.10088,-8.374826 0,-2.700292 -0.70442,-4.696165 -2.07414,-5.987609 -1.36971,-1.291444 -3.40472,-1.800196 -6.96597,-1.800196 l -10.72291,0 0,2.58289 2.70029,0 0,21.6023547 -2.70029,0 0,2.5828903 8.80531,0 0,-2.5828903 -2.7003,0 m 0,-21.6023547 4.38309,0 c 2.23067,0 3.56126,0.352213 4.42222,1.134906 0.9001,0.821828 1.36971,2.23068 1.36971,4.030874 0,1.995868 -0.39134,3.522124 -1.29144,4.422222 -0.9001,0.900097 -2.30895,1.291445 -4.69617,1.291445 l -4.18741,0 0,-10.879447"
           style="font-size:39.13470078px;font-variant:normal;font-weight:normal;font-stretch:normal;writing-mode:lr-tb;fill:#ffffff;fill-opacity:1;fill-rule:nonzero;stroke:none;font-family:Movistar Headline;-inkscape-font-specification:MovistarHeadline"
           id="path3052" />
        <path
           d="m 523.15266,-8.6096342 c 0.31307,0 0.43048,-0.07827 0.43048,-0.3522123 l 0,-1.1349065 c 0,-5.909334 -2.8177,-9.627136 -7.94435,-9.627136 -5.36144,0 -8.37482,4.109149 -8.37482,10.0967526 0,3.2090423 0.78269,5.9093416 2.46549,7.7095361 1.44798,1.56538643 3.8352,2.46548611 7.08338,2.46548611 1.95673,0 4.34395,-0.35221278 6.02674,-0.82182872 l 0,-1.95673499 -4.8527,0 c -3.09164,0 -4.81357,-0.547887 -5.90934,-1.7219269 -1.0175,-1.0566358 -1.44799,-2.5828923 -1.52626,-4.6570294 l 12.60138,0 m -12.56224,-2.5046208 c 0.1174,-3.248177 1.64366,-5.948475 5.04837,-5.948475 3.16991,0 4.65703,2.230682 4.93098,5.948475 l -9.97935,0"
           style="font-size:39.13470078px;font-variant:normal;font-weight:normal;font-stretch:normal;writing-mode:lr-tb;fill:#ffffff;fill-opacity:1;fill-rule:nonzero;stroke:none;font-family:Movistar Headline;-inkscape-font-specification:MovistarHeadline"
           id="path3054" />
        <path
           d="m 548.70763,-2.3872167 0,-11.0751203 c 0,-2.152406 -0.39135,-3.522124 -1.36972,-4.57876 -0.97837,-1.056636 -2.62203,-1.682792 -4.81357,-1.682792 -2.19154,0 -4.42222,0.665291 -6.33982,1.604523 -0.23481,-0.900098 -0.82183,-1.213176 -2.11327,-1.213176 -1.0175,0 -2.34809,0.117404 -3.67866,0.273943 l 0,2.308947 2.66116,0 0,16.749652 3.16991,0 0,-16.045227 c 1.99586,-0.469616 3.8352,-0.74356 5.28318,-0.74356 1.44798,0 2.54376,0.234809 3.16991,0.860964 0.62616,0.626154 0.86096,1.604524 0.86096,3.209045 l 0,10.8011777 c 0,0.7826932 0.11741,1.2523107 0.43049,1.56538799 0.39134,0.39134662 0.97836,0.54788581 1.76106,0.54788581 0.9001,0 2.66116,-0.15653888 3.52212,-0.2348082 l 0,-2.348082 -2.54375,0"
           style="font-size:39.13470078px;font-variant:normal;font-weight:normal;font-stretch:normal;writing-mode:lr-tb;fill:#ffffff;fill-opacity:1;fill-rule:nonzero;stroke:none;font-family:Movistar Headline;-inkscape-font-specification:MovistarHeadline"
           id="path3056" />
        <path
           d="m 571.05356,-1.1349063 c 0.19567,0.82182787 0.70443,1.3697145 1.99587,1.3697145 1.0175,0 2.26981,-0.11740425 3.60039,-0.2739429 l 0,-2.348082 -2.58289,0 0,-23.8330333 c 0,-0.782693 -0.1174,-1.25231 -0.43048,-1.565388 -0.39135,-0.391346 -0.97837,-0.547885 -1.76106,-0.547885 -0.9001,0 -2.77857,0.156539 -3.63953,0.234808 l 0,2.348082 2.66116,0 0,7.435593 c -1.64366,-0.821828 -3.63953,-1.408849 -5.36145,-1.408849 -4.69616,0 -7.553,3.835207 -7.553,10.0184832 0,6.4180845 2.50462,10.25329161 7.31819,10.25329161 1.87846,0 3.91347,-0.70442563 5.7528,-1.72192681 l 0,0.039135 m -4.89184,-1.2131757 c -3.20904,0 -4.89184,-1.7610672 -4.89184,-7.3964585 0,-4.6961595 1.5654,-7.0833805 5.08752,-7.0833805 1.2523,0 2.97423,0.313078 4.53962,0.704424 l 0,12.8753168 c -1.36971,0.5478853 -3.32645,0.9000982 -4.7353,0.9000982"
           style="font-size:39.13470078px;font-variant:normal;font-weight:normal;font-stretch:normal;writing-mode:lr-tb;fill:#ffffff;fill-opacity:1;fill-rule:nonzero;stroke:none;font-family:Movistar Headline;-inkscape-font-specification:MovistarHeadline"
           id="path3058" />
        <path
           d="m 587.05965,-23.128608 c 1.17404,0 1.9176,-0.587022 1.9176,-2.074139 l 0,-0.117404 c 0,-1.487118 -0.74356,-2.07414 -1.9176,-2.07414 l -0.23481,0 c -1.17404,0 -1.9176,0.587022 -1.9176,2.07414 l 0,0.117404 c 0,1.487117 0.74356,2.074139 1.9176,2.074139 l 0.23481,0 m 1.64365,5.90934 c 0,-0.782694 -0.1174,-1.252311 -0.43048,-1.565388 -0.39134,-0.391347 -0.97837,-0.547886 -1.76106,-0.547886 -0.9001,0 -2.85683,0.156539 -3.7178,0.234808 l 0,2.348082 2.73943,0 0,16.749652 3.16991,0 0,-17.219268"
           style="font-size:39.13470078px;font-variant:normal;font-weight:normal;font-stretch:normal;writing-mode:lr-tb;fill:#ffffff;fill-opacity:1;fill-rule:nonzero;stroke:none;font-family:Movistar Headline;-inkscape-font-specification:MovistarHeadline"
           id="path3060" />
        <path
           d="m 613.16248,-8.6096342 c 0.31308,0 0.43049,-0.07827 0.43049,-0.3522123 l 0,-1.1349065 c 0,-5.909334 -2.81771,-9.627136 -7.94435,-9.627136 -5.36145,0 -8.37482,4.109149 -8.37482,10.0967526 0,3.2090423 0.78269,5.9093416 2.46548,7.7095361 1.44798,1.56538643 3.83521,2.46548611 7.08338,2.46548611 1.95674,0 4.34396,-0.35221278 6.02675,-0.82182872 l 0,-1.95673499 -4.85271,0 c -3.09163,0 -4.81357,-0.547887 -5.90934,-1.7219269 -1.0175,-1.0566358 -1.44798,-2.5828923 -1.52625,-4.6570294 l 12.60137,0 m -12.56223,-2.5046208 c 0.1174,-3.248177 1.64366,-5.948475 5.04837,-5.948475 3.16991,0 4.65703,2.230682 4.93097,5.948475 l -9.97934,0"
           style="font-size:39.13470078px;font-variant:normal;font-weight:normal;font-stretch:normal;writing-mode:lr-tb;fill:#ffffff;fill-opacity:1;fill-rule:nonzero;stroke:none;font-family:Movistar Headline;-inkscape-font-specification:MovistarHeadline"
           id="path3062" />
        <path
           d="m 638.71745,-2.3872167 0,-11.0751203 c 0,-2.152406 -0.39135,-3.522124 -1.36971,-4.57876 -0.97837,-1.056636 -2.62203,-1.682792 -4.81357,-1.682792 -2.19154,0 -4.42222,0.665291 -6.33982,1.604523 -0.23481,-0.900098 -0.82183,-1.213176 -2.11328,-1.213176 -1.0175,0 -2.34808,0.117404 -3.67866,0.273943 l 0,2.308947 2.66116,0 0,16.749652 3.16991,0 0,-16.045227 c 1.99587,-0.469616 3.8352,-0.74356 5.28319,-0.74356 1.44798,0 2.54375,0.234809 3.16991,0.860964 0.62615,0.626154 0.86096,1.604524 0.86096,3.209045 l 0,10.8011777 c 0,0.7826932 0.11741,1.2523107 0.43048,1.56538799 0.39135,0.39134662 0.97837,0.54788581 1.76106,0.54788581 0.9001,0 2.66117,-0.15653888 3.52213,-0.2348082 l 0,-2.348082 -2.54376,0"
           style="font-size:39.13470078px;font-variant:normal;font-weight:normal;font-stretch:normal;writing-mode:lr-tb;fill:#ffffff;fill-opacity:1;fill-rule:nonzero;stroke:none;font-family:Movistar Headline;-inkscape-font-specification:MovistarHeadline"
           id="path3064" />
        <path
           d="m 650.02734,-19.215138 -3.32645,0.58702 0,1.878466 3.32645,0 0,11.1142551 c 0,2.5046183 0.39135,3.913471 1.40885,4.89183759 0.86096,0.82182789 2.19154,1.29144512 4.14828,1.29144512 1.36971,0 3.24818,-0.313078 4.30481,-0.70442461 l 0,-2.0741391 -3.56125,0 c -1.40885,0 -2.15241,-0.2739435 -2.58289,-0.8218288 -0.46962,-0.5870199 -0.54789,-1.4479853 -0.54789,-2.8959678 l 0,-10.8011775 5.20492,0 0,-2.426351 -5.20492,0 0,-5.009242 c -0.97837,0.03913 -2.26981,0.273943 -3.16991,0.547886 l 0,4.422221"
           style="font-size:39.13470078px;font-variant:normal;font-weight:normal;font-stretch:normal;writing-mode:lr-tb;fill:#ffffff;fill-opacity:1;fill-rule:nonzero;stroke:none;font-family:Movistar Headline;-inkscape-font-specification:MovistarHeadline"
           id="path3066" />
        <path
           d="m 681.96131,-8.6096342 c 0.31308,0 0.43048,-0.07827 0.43048,-0.3522123 l 0,-1.1349065 c 0,-5.909334 -2.8177,-9.627136 -7.94434,-9.627136 -5.36145,0 -8.37483,4.109149 -8.37483,10.0967526 0,3.2090423 0.7827,5.9093416 2.46549,7.7095361 1.44798,1.56538643 3.8352,2.46548611 7.08338,2.46548611 1.95673,0 4.34395,-0.35221278 6.02674,-0.82182872 l 0,-1.95673499 -4.8527,0 c -3.09164,0 -4.81357,-0.547887 -5.90934,-1.7219269 -1.0175,-1.0566358 -1.44798,-2.5828923 -1.52625,-4.6570294 l 12.60137,0 m -12.56224,-2.5046208 c 0.11741,-3.248177 1.64366,-5.948475 5.04838,-5.948475 3.16991,0 4.65703,2.230682 4.93097,5.948475 l -9.97935,0"
           style="font-size:39.13470078px;font-variant:normal;font-weight:normal;font-stretch:normal;writing-mode:lr-tb;fill:#ffffff;fill-opacity:1;fill-rule:nonzero;stroke:none;font-family:Movistar Headline;-inkscape-font-specification:MovistarHeadline"
           id="path3068" />
        <path
           d="m 726.92703,-1.9176003 c 0,0.7826932 0.1174,1.2523107 0.43048,1.56538799 0.39135,0.39134662 0.97837,0.54788581 1.76106,0.54788581 0.9001,0 2.66116,-0.15653888 3.52212,-0.2348082 l 0,-2.348082 -2.54375,0 0,-11.0751203 c 0,-2.152406 -0.39135,-3.522124 -1.36972,-4.57876 -0.97836,-1.056636 -2.70029,-1.682792 -4.65703,-1.682792 -2.07413,0 -4.34395,0.626156 -6.96597,1.956735 -1.13491,-1.408848 -2.89597,-1.956735 -4.85271,-1.956735 -2.07413,0 -4.34395,0.74356 -5.90933,1.643657 -0.23481,-0.900097 -0.82183,-1.25231 -2.11328,-1.25231 -1.0175,0 -2.34808,0.117404 -3.67866,0.273943 l 0,2.308947 2.66116,0 0,16.749652 3.16991,0 0,-16.045227 c 1.76106,-0.508751 3.36559,-0.74356 4.89184,-0.74356 1.21317,0 2.34808,0.234809 2.97423,0.860964 0.62616,0.626154 0.86097,1.604524 0.86097,3.209045 l 0,12.718778 3.16991,0 0,-13.344933 c 0,-1.056636 -0.0783,-1.917601 -0.31308,-2.622025 2.11327,-0.626155 3.75693,-0.821829 5.12665,-0.821829 1.21317,0 2.34808,0.234809 2.97423,0.860964 0.62616,0.626154 0.86097,1.604524 0.86097,3.209045 l 0,10.8011777"
           style="font-size:39.13470078px;font-variant:normal;font-weight:normal;font-stretch:normal;writing-mode:lr-tb;fill:#ffffff;fill-opacity:1;fill-rule:nonzero;stroke:none;font-family:Movistar Headline;-inkscape-font-specification:MovistarHeadline"
           id="path3070" />
        <path
           d="m 751.58194,-3.0916414 c -1.48712,0.5478853 -3.36559,0.8609635 -4.97011,0.8609635 -2.89596,0 -3.99174,-1.4088513 -3.99174,-3.404719 0,-1.1740399 0.39135,-2.035005 1.13491,-2.5828903 0.78269,-0.5870199 2.11327,-0.8609634 3.91347,-0.8609634 l 3.91347,0 0,5.9876092 m 0.0783,1.9567351 c 0.19567,0.82182787 0.78269,1.3697145 2.07414,1.3697145 1.0175,0 2.26981,-0.11740425 3.60039,-0.2739429 l 0,-2.348082 -2.58289,0 0,-11.1925243 c 0,-2.074137 -0.43048,-3.40472 -1.36971,-4.383087 -1.09578,-1.134905 -2.81771,-1.761061 -5.28319,-1.761061 -2.11327,0 -4.89184,0.313078 -6.92684,0.860963 l 0,2.035005 5.94847,0 c 1.83933,0 2.93511,0.195674 3.6004,0.821828 0.58702,0.547886 0.86096,1.330582 0.86096,2.895968 l 0,1.682792 c -1.40885,-0.07827 -2.85684,-0.156538 -4.26568,-0.156538 -2.9351,0 -5.12665,0.626156 -6.41809,1.9567346 -0.97837,0.9783666 -1.52626,2.3872185 -1.52626,4.1482783 0,4.0700048 2.89597,6.02674391 6.41809,6.02674391 2.07414,0 4.18742,-0.70442559 5.87021,-1.68279211 m -6.10501,-21.5240857 7.12251,-5.16578 -1.25231,-1.721927 c -0.46962,-0.665289 -0.86096,-0.58702 -1.48712,0 l -5.59626,5.361454 1.21318,1.526253"
           style="font-size:39.13470078px;font-variant:normal;font-weight:normal;font-stretch:normal;writing-mode:lr-tb;fill:#ffffff;fill-opacity:1;fill-rule:nonzero;stroke:none;font-family:Movistar Headline;-inkscape-font-specification:MovistarHeadline"
           id="path3072" />
        <path
           d="m 775.76718,-1.2523104 c 0.70442,1.05663584 1.09577,1.3697145 2.38722,1.3697145 0.66529,0 1.83933,-0.07826948 2.70029,-0.1565388 l 0,-2.348082 -2.30895,0 -4.73529,-7.2399197 6.18328,-9.1966546 c 0.1174,-0.195673 0.0783,-0.352212 -0.15654,-0.352212 l -2.38722,0 c -0.50875,0 -0.70442,0.07827 -1.0175,0.58702 l -4.03087,6.809438 -3.99174,-6.144148 c -0.70443,-1.056636 -1.01751,-1.33058 -2.34809,-1.33058 -0.66528,0 -1.9176,0.117404 -2.77856,0.195674 l 0,2.308947 2.38722,0 4.61789,7.1616503 -6.14415,9.23578939 C 764.02677,-0.156539 764.0659,0 764.30071,0 l 2.38722,0 c 0.50875,0 0.70442,-0.07826991 1.0175,-0.58702051 l 3.99174,-6.84857259 4.07001,6.1832827"
           style="font-size:39.13470078px;font-variant:normal;font-weight:normal;font-stretch:normal;writing-mode:lr-tb;fill:#ffffff;fill-opacity:1;fill-rule:nonzero;stroke:none;font-family:Movistar Headline;-inkscape-font-specification:MovistarHeadline"
           id="path3074" />
        <path
           d="m 791.26448,-23.128608 c 1.17404,0 1.9176,-0.587022 1.9176,-2.074139 l 0,-0.117404 c 0,-1.487118 -0.74356,-2.07414 -1.9176,-2.07414 l -0.23481,0 c -1.17404,0 -1.9176,0.587022 -1.9176,2.07414 l 0,0.117404 c 0,1.487117 0.74356,2.074139 1.9176,2.074139 l 0.23481,0 m 1.64366,5.90934 c 0,-0.782694 -0.11741,-1.252311 -0.43048,-1.565388 -0.39135,-0.391347 -0.97837,-0.547886 -1.76107,-0.547886 -0.90009,0 -2.85683,0.156539 -3.71779,0.234808 l 0,2.348082 2.73943,0 0,16.749652 3.16991,0 0,-17.219268"
           style="font-size:39.13470078px;font-variant:normal;font-weight:normal;font-stretch:normal;writing-mode:lr-tb;fill:#ffffff;fill-opacity:1;fill-rule:nonzero;stroke:none;font-family:Movistar Headline;-inkscape-font-specification:MovistarHeadline"
           id="path3076" />
        <path
           d="m 827.2684,-1.9176003 c 0,0.7826932 0.1174,1.2523107 0.43048,1.56538799 0.39135,0.39134662 0.97837,0.54788581 1.76106,0.54788581 0.9001,0 2.66116,-0.15653888 3.52212,-0.2348082 l 0,-2.348082 -2.54375,0 0,-11.0751203 c 0,-2.152406 -0.39135,-3.522124 -1.36972,-4.57876 -0.97836,-1.056636 -2.70029,-1.682792 -4.65703,-1.682792 -2.07413,0 -4.34395,0.626156 -6.96597,1.956735 -1.13491,-1.408848 -2.89597,-1.956735 -4.85271,-1.956735 -2.07413,0 -4.34395,0.74356 -5.90934,1.643657 -0.2348,-0.900097 -0.82183,-1.25231 -2.11327,-1.25231 -1.0175,0 -2.34808,0.117404 -3.67866,0.273943 l 0,2.308947 2.66116,0 0,16.749652 3.16991,0 0,-16.045227 c 1.76106,-0.508751 3.36559,-0.74356 4.89184,-0.74356 1.21317,0 2.34808,0.234809 2.97423,0.860964 0.62616,0.626154 0.86097,1.604524 0.86097,3.209045 l 0,12.718778 3.16991,0 0,-13.344933 c 0,-1.056636 -0.0783,-1.917601 -0.31308,-2.622025 2.11327,-0.626155 3.75693,-0.821829 5.12665,-0.821829 1.21317,0 2.34808,0.234809 2.97423,0.860964 0.62616,0.626154 0.86097,1.604524 0.86097,3.209045 l 0,10.8011777"
           style="font-size:39.13470078px;font-variant:normal;font-weight:normal;font-stretch:normal;writing-mode:lr-tb;fill:#ffffff;fill-opacity:1;fill-rule:nonzero;stroke:none;font-family:Movistar Headline;-inkscape-font-specification:MovistarHeadline"
           id="path3078" />
        <path
           d="m 851.92331,-3.0916414 c -1.48712,0.5478853 -3.36559,0.8609635 -4.97011,0.8609635 -2.89596,0 -3.99174,-1.4088513 -3.99174,-3.404719 0,-1.1740399 0.39135,-2.035005 1.13491,-2.5828903 0.78269,-0.5870199 2.11327,-0.8609634 3.91347,-0.8609634 l 3.91347,0 0,5.9876092 m 0.0783,1.9567351 c 0.19567,0.82182787 0.78269,1.3697145 2.07414,1.3697145 1.0175,0 2.26981,-0.11740425 3.60039,-0.2739429 l 0,-2.348082 -2.58289,0 0,-11.1925243 c 0,-2.074137 -0.43048,-3.40472 -1.36971,-4.383087 -1.09578,-1.134905 -2.81771,-1.761061 -5.28319,-1.761061 -2.11327,0 -4.89184,0.313078 -6.92684,0.860963 l 0,2.035005 5.94847,0 c 1.83933,0 2.93511,0.195674 3.6004,0.821828 0.58702,0.547886 0.86096,1.330582 0.86096,2.895968 l 0,1.682792 c -1.40885,-0.07827 -2.85684,-0.156538 -4.26568,-0.156538 -2.9351,0 -5.12665,0.626156 -6.41809,1.9567346 -0.97837,0.9783666 -1.52626,2.3872185 -1.52626,4.1482783 0,4.0700048 2.89597,6.02674391 6.41809,6.02674391 2.07414,0 4.18742,-0.70442559 5.87021,-1.68279211"
           style="font-size:39.13470078px;font-variant:normal;font-weight:normal;font-stretch:normal;writing-mode:lr-tb;fill:#ffffff;fill-opacity:1;fill-rule:nonzero;stroke:none;font-family:Movistar Headline;-inkscape-font-specification:MovistarHeadline"
           id="path3080" />
        <path
           d="m 867.10757,0.54788581 c 1.17404,0 1.95673,-0.58702204 1.95673,-2.11327381 l 0,-0.1565388 c 0,-1.5262518 -0.78269,-2.1132739 -1.95673,-2.1132739 l -0.27394,0 c -1.17404,0 -1.95674,0.5870221 -1.95674,2.1132739 l 0,0.1565388 c 0,1.52625177 0.7827,2.11327381 1.95674,2.11327381 l 0.27394,0 m 0,-12.13175681 c 1.17404,0 1.95673,-0.587022 1.95673,-2.113274 l 0,-0.156539 c 0,-1.526252 -0.78269,-2.113274 -1.95673,-2.113274 l -0.27394,0 c -1.17404,0 -1.95674,0.587022 -1.95674,2.113274 l 0,0.156539 c 0,1.526252 0.7827,2.113274 1.95674,2.113274 l 0.27394,0"
           style="font-size:39.13470078px;font-variant:normal;font-weight:normal;font-stretch:normal;writing-mode:lr-tb;fill:#ffffff;fill-opacity:1;fill-rule:nonzero;stroke:none;font-family:Movistar Headline;-inkscape-font-specification:MovistarHeadline"
           id="path3082" />
        <path
           d="m 891.37109,-2.7394291 6.10501,-7.0442461 c 4.14828,-4.8135638 5.87021,-7.2007888 5.87021,-10.6446388 0,-2.074137 -0.58702,-3.717797 -1.68279,-4.813568 -1.40885,-1.408848 -3.56126,-2.035004 -6.49636,-2.035004 -1.8002,0 -4.30482,0.234808 -6.30069,0.58702 l 0,2.308947 5.20492,0 c 2.50461,0 3.99174,0.234809 4.93097,1.095772 0.66529,0.626155 1.0175,1.526255 1.0175,2.778564 0,2.543753 -1.13491,4.657033 -4.53963,8.727038 l -5.9876,7.200785 c -1.25231,1.5262518 -1.64366,2.4654873 -1.64366,3.60039248 0,0.27394263 0.0391,0.70442489 0.1174,0.97836752 l 14.91032,0 c 0.86097,0 1.09577,-0.11740453 1.09577,-0.54788581 l 0,-5.90933979 -2.11327,0 c -0.31308,0.9392319 -0.62615,2.6611607 -0.66529,3.7177965 l -9.82281,0"
           style="font-size:39.13470078px;font-variant:normal;font-weight:normal;font-stretch:normal;writing-mode:lr-tb;fill:#ffffff;fill-opacity:1;fill-rule:nonzero;stroke:none;font-family:Movistar Headline;-inkscape-font-specification:MovistarHeadline"
           id="path3084" />
        <path
           d="M 926.0444,-24.106976 916.61294,0 l 2.70029,0 c 0.74356,0 0.93924,-0.19567409 1.17404,-0.78269402 L 928.7447,-23.324282 c 0.39134,-1.017501 0.58702,-1.721927 0.58702,-2.465486 0,-0.391346 -0.0783,-0.782694 -0.15654,-0.978367 l -16.20177,0 c -0.86096,0 -1.09577,0.117404 -1.09577,0.547885 l 0,5.870206 2.11327,0 c 0.31308,-0.939232 0.62616,-2.700296 0.66529,-3.756932 l 11.3882,0"
           style="font-size:39.13470078px;font-variant:normal;font-weight:normal;font-stretch:normal;writing-mode:lr-tb;fill:#ffffff;fill-opacity:1;fill-rule:nonzero;stroke:none;font-family:Movistar Headline;-inkscape-font-specification:MovistarHeadline"
           id="path3086" />
        <path
           d="m 961.53957,-27.276886 -2.97424,0 -13.81455,27.82477181 2.97424,0 13.81455,-27.82477181 m -11.77955,8.140017 c 0,-4.383082 -1.64366,-8.140017 -6.22241,-8.140017 -4.57876,0 -6.22242,3.756935 -6.22242,8.140017 0,4.383082 1.64366,8.140018 6.22242,8.140018 4.57875,0 6.22241,-3.756936 6.22241,-8.140018 m -2.97423,0 c 0,3.835197 -0.9001,5.596263 -3.24818,5.596263 -2.34808,0 -3.24818,-1.761066 -3.24818,-5.596263 0,-3.835197 0.9001,-5.596262 3.24818,-5.596262 2.34808,0 3.24818,1.761065 3.24818,5.596262 m 22.18937,11.544737 c 0,-4.383082 -1.64366,-8.140018 -6.22241,-8.140018 -4.57876,0 -6.22242,3.756936 -6.22242,8.140018 0,4.3830822 1.64366,8.14001781 6.22242,8.14001781 4.57875,0 6.22241,-3.75693561 6.22241,-8.14001781 m -2.97423,0 c 0,3.8351969 -0.9001,5.5962623 -3.24818,5.5962623 -2.34808,0 -3.24818,-1.7610654 -3.24818,-5.5962623 0,-3.835197 0.9001,-5.596262 3.24818,-5.596262 2.34808,0 3.24818,1.761065 3.24818,5.596262"
           style="font-size:39.13470078px;font-variant:normal;font-weight:normal;font-stretch:normal;writing-mode:lr-tb;fill:#ffffff;fill-opacity:1;fill-rule:nonzero;stroke:none;font-family:Movistar Headline;-inkscape-font-specification:MovistarHeadline"
           id="path3088" />
      </g>
    </g>
  </g>
</svg>
