<?xml version="1.0" encoding="utf-8"?>
<!-- Generator: Adobe Illustrator 16.0.0, SVG Export Plug-In . SVG Version: 6.00 Build 0)  -->
<!DOCTYPE svg PUBLIC "-//W3C//DTD SVG 1.1//EN" "http://www.w3.org/Graphics/SVG/1.1/DTD/svg11.dtd">
<svg version="1.1" id="Layer_1" xmlns="http://www.w3.org/2000/svg" xmlns:xlink="http://www.w3.org/1999/xlink" x="0px" y="0px"
	 width="500px" height="378.857px" viewBox="0 0 500 378.857" enable-background="new 0 0 500 378.857" xml:space="preserve">
<g>
	<g>
		<path fill="#FFFFFF" d="M409.774,91.368c2.481,0.394,4.689,0.891,7.095,1.618c11.466,3.832,21.784,10.975,20.625,24.387
			c-15.04,0.055-27.107-4.995-37.229-16.177c-0.021-0.044-0.218-0.263-0.263-0.317c-2.394-2.973-4.395-6.208-5.924-9.712
			C399.292,90.57,404.582,90.597,409.774,91.368L409.774,91.368z"/>
		<path fill="#FFFFFF" d="M422.147,125.565c13.894,5.329,27.491,15.615,23.272,32.268c-17.785-2.875-34.728-17.364-39.045-35.301
			C411.731,122.887,417.065,123.827,422.147,125.565L422.147,125.565z"/>
		<path fill="#FFFFFF" d="M427.384,162.046c6.198,3.771,10.537,7.471,14.646,13.466c4.887,8.034,7.007,15.958,2.613,24.737
			c-18.255-7.499-31.437-25.037-32.617-44.527C417.382,157.166,422.586,159.243,427.384,162.046L427.384,162.046z"/>
		<path fill="#FFFFFF" d="M424.957,199.604c11.204,10.636,20.856,26.332,10.242,40.805c-16.43-9.99-26.846-30.771-24.463-50.211
			C415.83,192.729,420.661,195.844,424.957,199.604L424.957,199.604z"/>
		<path fill="#FFFFFF" d="M415.152,234.484c9.269,12.571,16.177,29.994,2.842,42.455c-14.209-12.877-21.293-35.743-15.412-54.467
			C407.238,225.958,411.523,229.937,415.152,234.484L415.152,234.484z"/>
		<path fill="#FFFFFF" d="M398.887,265.724c2.144,4.066,3.586,7.564,4.755,12.002c2.504,12.395,1.356,24.594-10.252,31.787
			c-9.325-13.653-12.67-30.409-9.105-46.631c0.885-4.022,2.252-7.914,4.164-11.564C392.481,255.667,396.066,260.488,398.887,265.724
			L398.887,265.724z"/>
		<path fill="#FFFFFF" d="M376.556,293.193c4.274,16.32,3.968,35.93-14.09,43.253c-8.536-18.035-6.033-43.821,6.45-59.89
			C372.118,281.771,374.773,287.345,376.556,293.193L376.556,293.193z"/>
		<path fill="#FFFFFF" d="M390.219,59.62c13.883,0.06,29.601,4.388,31.371,20.451c-13.411,3.082-28.627-0.53-39.077-9.51
			c-2.82-2.421-5.269-5.203-7.323-8.291C380.054,60.757,385.114,59.817,390.219,59.62L390.219,59.62z"/>
		<path fill="#FFFFFF" d="M379.539,29.156c5.531,11.997,15.042,21.375,29.012,21.014c3.847-14.401-7.237-26.535-20.069-31.06
			c-4.264-1.502-8.745-2.273-13.248-2.349C376.305,21.012,377.703,25.183,379.539,29.156L379.539,29.156z"/>
		<path fill="#FFFFFF" d="M447.857,71.343c-0.908,2.503-1.706,4.974-2.427,7.537c-3.389,12.242-5.434,24.496,3.082,35.082
			c14.353-10.28,18.571-27.255,13.357-43.821c-1.617-5.148-4.021-10.045-7.127-14.461C452.098,60.735,449.781,65.982,447.857,71.343
			L447.857,71.343z"/>
		<path fill="#FFFFFF" d="M476.418,98.894c-3.781,4.421-7.29,9.11-10.438,13.997l0,0c-7.672,11.953-16.352,29.89-9.028,43.926
			C479.906,148.356,484.912,119.723,476.418,98.894"/>
		<path fill="#FFFFFF" d="M485.101,146.605c-4.383,3.826-8.536,7.956-12.36,12.333l0,0c-9.325,10.712-20.518,27.2-15.31,42.15
			C481.371,196.05,490.48,168.446,485.101,146.605"/>
		<path fill="#FFFFFF" d="M475.325,206.447c-12.361,7.946-29.413,21.479-29.107,37.82c19.391,2.197,34.803-11.838,41.471-29.01"/>
		<path fill="#FFFFFF" d="M483.721,247.328c-6.176,1.279-12.275,2.974-18.232,5.072l0,0c-14.035,4.93-34.061,14.352-37.46,30.595
			c18.714,6.58,37.209-3.542,47.789-19.063"/>
		<path fill="#FFFFFF" d="M446.83,294.734c-4.788,0.591-9.227,1.334-13.927,2.438c-12.832,3.521-24.375,8.023-30.911,20.364
			c18.309,10.166,34.978,5.203,50.631-7.258c0.153-0.088,1.684-1.509,1.924-1.749c4.591-4.274,8.482-9.27,11.564-14.746
			C459.685,293.663,453.213,293.98,446.83,294.734L446.83,294.734z"/>
		<path fill="#FFFFFF" d="M419.568,333.035c-16.003-1.377-39.318-0.819-50.303,13.074c15.04,14.778,37.711,12.8,54.719,2.634
			c5.684-3.398,10.832-7.685,15.237-12.613C432.772,334.654,426.181,333.625,419.568,333.035L419.568,333.035z"/>
		<path fill="#FFFFFF" d="M421.405,33.917c-1.728,13.106-1.957,32.016,10.22,40.564c15.751-16.32,9.247-42.324-6.941-56.829
			C423.241,22.991,422.126,28.44,421.405,33.917L421.405,33.917z"/>
		<g>
			<path fill="#FFFFFF" d="M408.682,50.329c8.854,11.838,15.423,22.577,21.883,35.891c13.947,30.601,19.413,55.665,19.653,89.293
				c-1.334,42.936-10.931,74.351-34.158,110.456c-23.862,33.94-48.478,54.543-86.124,71.989c0.853,1.946,1.705,3.892,2.558,5.837
				c38.641-18.232,63.825-39.657,88.004-74.875c23.315-37.197,32.694-69.477,33.263-113.407
				c-0.907-34.027-7.018-59.315-22.026-89.867C424.858,72.458,417.973,61.921,408.682,50.329L408.682,50.329z"/>
		</g>
		<path fill="#FFFFFF" d="M94.161,91.368c-2.471,0.394-4.679,0.891-7.094,1.618C75.6,96.817,65.293,103.96,66.451,117.373
			c15.03,0.055,27.108-4.995,37.22-16.177c0.021-0.044,0.218-0.263,0.262-0.317c2.404-2.973,4.394-6.208,5.924-9.712
			C104.654,90.57,99.353,90.597,94.161,91.368L94.161,91.368z"/>
		<path fill="#FFFFFF" d="M81.788,125.565c-13.894,5.329-27.491,15.615-23.261,32.268c17.773-2.875,34.716-17.364,39.044-35.301
			C92.204,122.887,86.881,123.827,81.788,125.565L81.788,125.565z"/>
		<path fill="#FFFFFF" d="M76.562,162.046c-6.198,3.771-10.548,7.471-14.647,13.466c-4.896,8.034-6.995,15.958-2.612,24.737
			c18.243-7.499,31.426-25.037,32.606-44.527C86.553,157.166,81.35,159.243,76.562,162.046L76.562,162.046z"/>
		<path fill="#FFFFFF" d="M78.989,199.604c-11.215,10.636-20.855,26.332-10.253,40.805c16.44-9.99,26.846-30.771,24.474-50.211
			C88.105,192.729,83.274,195.844,78.989,199.604L78.989,199.604z"/>
		<path fill="#FFFFFF" d="M88.783,234.484c-9.269,12.571-16.177,29.994-2.842,42.455c14.21-12.877,21.305-35.743,15.424-54.467
			C96.696,225.958,92.412,229.937,88.783,234.484L88.783,234.484z"/>
		<path fill="#FFFFFF" d="M105.059,265.724c-2.142,4.066-3.596,7.564-4.766,12.002c-2.503,12.395-1.344,24.594,10.264,31.787
			c9.312-13.653,12.658-30.409,9.094-46.631c-0.885-4.022-2.252-7.914-4.165-11.564
			C111.453,255.667,107.879,260.488,105.059,265.724L105.059,265.724z"/>
		<path fill="#FFFFFF" d="M127.391,293.193c-4.296,16.32-3.979,35.93,14.079,43.253c8.547-18.035,6.034-43.821-6.45-59.89
			C131.828,281.771,129.172,287.345,127.391,293.193L127.391,293.193z"/>
		<path fill="#FFFFFF" d="M113.727,59.62c-13.893,0.06-29.611,4.388-31.371,20.451c13.401,3.082,28.616-0.53,39.067-9.51
			c2.82-2.421,5.268-5.203,7.334-8.291C123.882,60.757,118.82,59.817,113.727,59.62L113.727,59.62z"/>
		<path fill="#FFFFFF" d="M124.395,29.156c-5.531,11.997-15.03,21.375-29.01,21.014c-3.847-14.401,7.247-26.535,20.08-31.06
			c4.252-1.502,8.734-2.273,13.238-2.349C127.63,21.012,126.231,25.183,124.395,29.156L124.395,29.156z"/>
		<path fill="#FFFFFF" d="M56.1,71.343c0.886,2.503,1.683,4.974,2.416,7.537c3.377,12.242,5.433,24.496-3.093,35.082
			c-14.352-10.28-18.561-27.255-13.357-43.821c1.618-5.148,4.022-10.045,7.126-14.461C51.837,60.735,54.154,65.982,56.1,71.343
			L56.1,71.343z"/>
		<path fill="#FFFFFF" d="M37.956,112.891c7.673,11.953,16.352,29.89,9.028,43.926c-22.955-8.46-27.961-37.094-19.468-57.922
			C31.298,103.315,34.807,108.004,37.956,112.891L37.956,112.891z"/>
		<path fill="#FFFFFF" d="M28.467,158.472c5.312,5.487,9.521,10.504,13.521,17.041c4.886,8.581,7.859,16.233,5.782,26.179
			c-15.675-2.58-24.31-11.86-30.158-26.179c-3.422-8.854-4.23-19.692-2.722-29.048C19.679,150.132,24.226,154.154,28.467,158.472
			L28.467,158.472z"/>
		<path fill="#FFFFFF" d="M12.312,197.44c5.618,2.635,11.084,5.651,16.309,9.007l0,0c12.352,7.946,29.393,21.479,29.098,37.82
			c-19.391,2.197-34.792-11.838-41.46-29.01C14.039,209.562,12.727,203.529,12.312,197.44"/>
		<path fill="#FFFFFF" d="M38.436,252.4c14.046,4.93,34.082,14.352,37.471,30.595c-18.703,6.58-37.209-3.542-47.779-19.063
			c-3.476-5.094-6.132-10.711-7.914-16.604C26.39,248.607,32.5,250.301,38.436,252.4L38.436,252.4z"/>
		<path fill="#FFFFFF" d="M57.106,294.734c4.787,0.591,9.225,1.334,13.925,2.438c12.843,3.521,24.376,8.023,30.912,20.364
			c-18.309,10.166-34.968,5.203-50.62-7.258c-0.164-0.088-1.672-1.509-1.935-1.749c-4.591-4.274-8.481-9.27-11.553-14.746
			C44.262,293.663,50.722,293.98,57.106,294.734L57.106,294.734z"/>
		<path fill="#FFFFFF" d="M84.367,333.035c16.025-1.377,39.329-0.819,50.304,13.074c-15.041,14.778-37.701,12.8-54.719,2.634
			c-5.684-3.398-10.844-7.685-15.238-12.613C71.163,334.654,77.765,333.625,84.367,333.035L84.367,333.035z"/>
		<path fill="#FFFFFF" d="M82.531,33.917c1.727,13.106,1.967,32.016-10.21,40.564c-15.74-16.32-9.247-42.324,6.931-56.829
			C80.705,22.991,81.831,28.44,82.531,33.917L82.531,33.917z"/>
		<g>
			<path fill="#FFFFFF" d="M95.276,50.329C86.399,62.167,79.842,72.906,73.371,86.22c-13.948,30.601-19.413,55.665-19.654,89.293
				c1.345,42.936,10.931,74.351,34.17,110.456c23.851,33.94,48.467,54.543,86.134,71.989c-0.875,1.946-1.716,3.892-2.58,5.837
				c-38.64-18.232-63.814-39.657-88.003-74.875c-23.304-37.197-32.693-69.477-33.251-113.407
				c0.907-34.027,6.996-59.315,22.025-89.867C79.099,72.458,85.963,61.921,95.276,50.329L95.276,50.329z"/>
		</g>
	</g>
	<g>
		<g>
			<path fill="#FFFFFF" d="M223.559,73.961c-20.332,0-36.684,16.79-36.684,37.733v89.168c0,17.335,25.086,17.335,25.086,0v-81.561
				h5.936l21.315,225.987c2.984,24.759,27.589,24.452,30.114,0l21.326-225.987h5.794v81.561c0,17.467,24.943,17.467,24.899,0
				v-88.644c0-19.314-14.812-38.213-37.132-38.213L223.559,73.961z"/>
		</g>
		<g>
			<path fill="#FFFFFF" d="M254.033,65.883c15.971,0,28.912-12.92,28.912-28.825c0-15.92-12.941-28.824-28.912-28.824
				c-15.958,0-28.878,12.903-28.878,28.824C225.155,52.963,238.075,65.883,254.033,65.883z"/>
			<path fill="#FFFFFF" d="M254.033,37.059"/>
		</g>
	</g>
</g>
</svg>
