<?xml version="1.0" encoding="UTF-8" standalone="no"?>
<!-- Created with Inkscape (http://www.inkscape.org/) -->

<svg
   xmlns:dc="http://purl.org/dc/elements/1.1/"
   xmlns:cc="http://creativecommons.org/ns#"
   xmlns:rdf="http://www.w3.org/1999/02/22-rdf-syntax-ns#"
   xmlns:svg="http://www.w3.org/2000/svg"
   xmlns="http://www.w3.org/2000/svg"
   xmlns:sodipodi="http://sodipodi.sourceforge.net/DTD/sodipodi-0.dtd"
   xmlns:inkscape="http://www.inkscape.org/namespaces/inkscape"
   width="254.8271"
   height="70.501251"
   id="svg3209"
   version="1.1"
   inkscape:version="0.48.4 r9939"
   sodipodi:docname="Nuevo documento 3">
  <defs
     id="defs3211">
    <clipPath
       clipPathUnits="userSpaceOnUse"
       id="clipPath108">
      <path
         inkscape:connector-curvature="0"
         d="M 0,390 832,390 832,0 0,0 0,390 z"
         id="path110" />
    </clipPath>
  </defs>
  <sodipodi:namedview
     id="base"
     pagecolor="#ffffff"
     bordercolor="#666666"
     borderopacity="1.0"
     inkscape:pageopacity="0.0"
     inkscape:pageshadow="2"
     inkscape:zoom="0.35"
     inkscape:cx="127.41356"
     inkscape:cy="35.250627"
     inkscape:document-units="px"
     inkscape:current-layer="layer1"
     showgrid="false"
     fit-margin-top="0"
     fit-margin-left="0"
     fit-margin-right="0"
     fit-margin-bottom="0"
     inkscape:window-width="1440"
     inkscape:window-height="868"
     inkscape:window-x="0"
     inkscape:window-y="150"
     inkscape:window-maximized="1" />
  <metadata
     id="metadata3214">
    <rdf:RDF>
      <cc:Work
         rdf:about="">
        <dc:format>image/svg+xml</dc:format>
        <dc:type
           rdf:resource="http://purl.org/dc/dcmitype/StillImage" />
        <dc:title></dc:title>
      </cc:Work>
    </rdf:RDF>
  </metadata>
  <g
     inkscape:label="Capa 1"
     inkscape:groupmode="layer"
     id="layer1"
     transform="translate(-222.58644,-497.11156)">
    <g
       transform="matrix(1.25,0,0,-1.25,-534.22914,891.69731)"
       id="g104">
      <g
         id="g106"
         clip-path="url(#clipPath108)">
        <g
           id="g112"
           transform="translate(791.9199,311.5796)">
          <path
             inkscape:connector-curvature="0"
             d="M 0,0 C 0.834,0 1.673,0.056 2.502,-0.013 3.909,-0.127 4.926,-1.325 4.932,-2.776 4.937,-4.243 3.936,-5.473 2.555,-5.57 2.212,-5.595 1.626,-5.361 1.537,-5.11 c -0.181,0.511 0.268,0.688 0.758,0.77 0.866,0.147 1.438,0.847 1.398,1.604 -0.045,0.838 -0.744,1.478 -1.701,1.493 -1.41,0.022 -2.819,0.014 -4.23,0.004 -0.472,-0.004 -0.933,0.058 -0.936,0.626 -0.002,0.567 0.457,0.644 0.93,0.638 C -1.496,0.015 -0.748,0.022 0,0.022 L 0,0 z"
             style="fill:#ffffff;fill-opacity:1;fill-rule:evenodd;stroke:none"
             id="path114" />
        </g>
        <g
           id="g116"
           transform="translate(661.4922,293.1177)">
          <path
             inkscape:connector-curvature="0"
             d="m 0,0 c 2.225,1.384 4.545,1.369 6.886,0.508 1.389,-0.512 2.05,-1.676 2.079,-3.114 0.053,-2.71 0.018,-5.423 0.034,-8.134 0.003,-0.433 -0.132,-0.638 -0.595,-0.621 -0.628,0.026 -1.259,0.007 -1.984,0.007 -0.016,0.365 -0.04,0.671 -0.043,0.975 C 6.36,-8.099 6.352,-5.821 6.329,-3.542 6.32,-2.677 6.23,-1.795 5.233,-1.509 4.047,-1.169 2.8,-1.007 1.819,-1.964 1.504,-2.273 1.39,-2.901 1.378,-3.387 1.323,-5.751 1.312,-8.117 1.334,-10.482 c 0.005,-0.665 -0.172,-0.903 -0.876,-0.891 -1.812,0.033 -1.808,-0.002 -1.815,1.843 -0.007,2.106 -0.012,4.211 -0.043,6.317 -0.017,1.118 -0.455,1.658 -1.556,1.835 -0.588,0.095 -1.214,0.092 -1.805,0.007 -1.018,-0.147 -1.496,-0.615 -1.53,-1.663 -0.076,-2.362 -0.061,-4.727 -0.076,-7.091 -0.008,-1.229 -0.002,-1.239 -1.202,-1.228 -1.69,0.017 -1.447,-0.229 -1.458,1.473 -0.013,2.192 -0.012,4.384 0,6.577 0.014,2.683 1.265,4.046 3.939,4.288 C -3.284,1.148 -1.509,1.137 0,0"
             style="fill:#ffffff;fill-opacity:1;fill-rule:evenodd;stroke:none"
             id="path118" />
        </g>
        <g
           id="g120"
           transform="translate(781.2061,289.3437)">
          <path
             inkscape:connector-curvature="0"
             d="m 0,0 c -0.729,-0.313 -1.37,-0.66 -2.058,-0.853 -0.286,-0.081 -0.665,0.163 -1.002,0.259 0.16,0.29 0.247,0.7 0.492,0.849 0.605,0.368 1.284,0.616 2.029,0.954 -1.37,2.225 -3.272,3.485 -5.79,3.664 -4.236,0.301 -7.783,-2.966 -7.818,-7.107 -0.036,-4.306 3.393,-7.678 7.701,-7.365 1.236,0.09 2.447,0.731 3.633,1.206 0.457,0.182 0.898,0.512 1.146,-0.072 0.101,-0.236 -0.174,-0.812 -0.443,-1.003 -5.103,-3.622 -12.669,-0.174 -13.255,6.019 -0.397,4.185 1.811,7.796 5.588,9.136 C -5.944,7.05 -1.924,5.647 0.416,2.135 0.494,2.017 0.578,1.902 0.701,1.727 2.808,2.689 4.915,3.612 6.978,4.625 7.349,4.807 7.819,5.419 7.751,5.72 7.64,6.203 7.204,6.77 6.754,6.993 4.768,7.971 2.726,8.84 0.703,9.747 c -1.366,0.611 -2.754,1.182 -4.096,1.84 -1.873,0.915 -2.448,2.621 -1.452,4.1 0.667,0.987 2.633,1.782 3.768,1.467 0.216,-0.059 0.494,-0.376 0.499,-0.582 0.008,-0.203 -0.254,-0.526 -0.466,-0.603 -0.398,-0.143 -0.848,-0.149 -1.275,-0.207 -0.84,-0.115 -1.525,-0.478 -1.68,-1.367 -0.152,-0.871 0.493,-1.328 1.156,-1.634 C -0.622,11.733 1.621,10.754 3.854,9.754 4.984,9.249 6.118,8.751 7.241,8.229 8.34,7.72 9.071,6.921 9.062,5.638 9.053,4.388 8.227,3.734 7.212,3.266 5.46,2.457 3.705,1.654 1.935,0.89 1.397,0.658 1.222,0.452 1.388,-0.192 2.025,-2.689 1.642,-5.05 0.196,-7.211 c -0.31,-0.463 -0.727,-0.8 -1.151,-0.234 -0.15,0.202 -0.008,0.756 0.169,1.047 C 0.416,-4.411 0.753,-2.333 0,0"
             style="fill:#ffffff;fill-opacity:1;fill-rule:evenodd;stroke:none"
             id="path122" />
        </g>
        <g
           id="g124"
           transform="translate(685.0176,293.856)">
          <path
             inkscape:connector-curvature="0"
             d="m 0,0 2.779,0 c 0.304,-3.288 1.099,-6.406 2.63,-9.455 1.493,3.071 2.32,6.161 2.601,9.446 l 2.806,0 C 10.652,-1.138 10.56,-2.245 10.318,-3.318 9.665,-6.232 8.467,-8.946 7.069,-11.57 6.934,-11.825 6.509,-12.057 6.206,-12.072 3.939,-12.184 3.946,-12.163 2.93,-10.119 1.497,-7.236 0.383,-4.255 0.088,-1.02 0.06,-0.71 0.034,-0.402 0,0"
             style="fill:#ffffff;fill-opacity:1;fill-rule:evenodd;stroke:none"
             id="path126" />
        </g>
        <g
           id="g128"
           transform="translate(703.0273,284.23)">
          <path
             inkscape:connector-curvature="0"
             d="m 0,0 c 1.317,-0.154 2.479,-0.312 3.646,-0.414 0.423,-0.037 0.87,0.016 1.287,0.11 0.581,0.132 1.091,0.387 1.161,1.098 C 6.162,1.505 5.733,1.849 5.165,2.083 4.607,2.313 4.035,2.509 3.474,2.732 2.832,2.985 2.179,3.219 1.559,3.518 0.346,4.104 -0.222,5.1 -0.193,6.446 c 0.028,1.327 0.579,2.36 1.794,2.923 1.961,0.909 4,0.569 6.021,0.222 C 7.755,9.569 7.935,9.322 7.945,9.168 7.984,8.604 7.96,8.034 7.96,7.372 7.081,7.475 6.32,7.604 5.555,7.643 4.869,7.679 4.152,7.723 3.5,7.56 3.082,7.456 2.589,7.049 2.428,6.657 2.189,6.075 2.707,5.715 3.213,5.509 4.198,5.108 5.208,4.765 6.186,4.346 8.125,3.514 8.806,2.514 8.694,0.76 8.578,-1.068 7.283,-2.393 5.126,-2.573 3.766,-2.687 2.377,-2.482 1.004,-2.384 0.256,-2.332 -0.136,-1.946 -0.011,-1.131 0.047,-0.771 0,-0.396 0,0"
             style="fill:#ffffff;fill-opacity:1;fill-rule:evenodd;stroke:none"
             id="path130" />
        </g>
        <g
           id="g132"
           transform="translate(801.5928,295.502)">
          <path
             inkscape:connector-curvature="0"
             d="m 0,0 c 2.511,-0.093 5.068,-1.554 6.646,-4.481 1.557,-2.894 1.393,-5.812 -0.296,-8.636 -0.06,-0.099 -0.103,-0.244 -0.191,-0.282 -0.324,-0.144 -0.666,-0.252 -1,-0.374 -0.025,0.357 -0.206,0.813 -0.051,1.054 0.935,1.463 1.365,3.029 1.254,4.76 -0.224,3.521 -3.238,6.511 -6.762,6.689 -3.727,0.19 -7.049,-2.351 -7.632,-5.898 -0.51,-3.114 0.518,-5.672 3.144,-7.417 2.597,-1.727 5.312,-1.656 7.981,-0.043 0.023,0.015 0.049,0.031 0.072,0.048 0.398,0.289 0.849,0.547 1.178,-0.015 0.31,-0.528 -0.111,-0.829 -0.515,-1.101 -2.76,-1.866 -6.664,-1.857 -9.468,0.026 -3.159,2.122 -4.552,6.029 -3.441,9.649 C -7.962,-2.372 -4.693,0.01 0,0"
             style="fill:#ffffff;fill-opacity:1;fill-rule:evenodd;stroke:none"
             id="path134" />
        </g>
        <g
           id="g136"
           transform="translate(718.6426,293.9014)">
          <path
             inkscape:connector-curvature="0"
             d="M 0,0 C 0.099,-0.12 0.128,-0.14 0.131,-0.164 0.413,-2.175 0.403,-2.187 -1.564,-2.216 -1.765,-2.218 -1.965,-2.237 -2.217,-2.25 -2.246,-2.448 -2.298,-2.64 -2.299,-2.831 -2.304,-4.53 -2.322,-6.23 -2.29,-7.93 c 0.023,-1.232 0.57,-1.845 1.788,-1.863 0.79,-0.013 0.881,-0.349 0.87,-0.995 -0.026,-1.401 -0.002,-1.401 -1.424,-1.344 -2.394,0.095 -3.76,1.265 -3.854,3.649 -0.135,3.423 -0.075,6.854 -0.11,10.282 -0.005,0.494 0.212,0.679 0.682,0.625 C -3.676,2.349 -2.713,2.511 -2.43,2.146 -2.097,1.715 -2.352,0.828 -2.352,0 L -1.103,0 0,0 z"
             style="fill:#ffffff;fill-opacity:1;fill-rule:evenodd;stroke:none"
             id="path138" />
        </g>
        <g
           id="g140"
           transform="translate(739.208,291.8213)">
          <path
             inkscape:connector-curvature="0"
             d="m 0,0 c -0.59,0 -1.045,0.005 -1.499,0 -1.544,-0.021 -2.111,-0.571 -2.129,-2.171 -0.024,-2.276 -0.056,-4.554 0.018,-6.827 0.029,-0.913 -0.262,-1.116 -1.114,-1.08 -1.571,0.066 -1.579,0.017 -1.572,1.633 0.009,2.361 -0.016,4.725 0.056,7.086 0.059,1.971 1.244,3.259 3.208,3.572 0.763,0.123 1.549,0.103 2.323,0.156 C -0.213,2.403 0.047,2.237 0.008,1.686 -0.029,1.174 0,0.657 0,0"
             style="fill:#ffffff;fill-opacity:1;fill-rule:evenodd;stroke:none"
             id="path142" />
        </g>
        <g
           id="g144"
           transform="translate(697.8604,281.7627)">
          <path
             inkscape:connector-curvature="0"
             d="m 0,0 0,12.079 2.562,0 C 2.58,11.789 2.614,11.512 2.614,11.233 2.618,7.801 2.594,4.368 2.636,0.935 2.646,0.155 2.408,-0.097 1.654,-0.012 1.146,0.047 0.622,0 0,0"
             style="fill:#ffffff;fill-opacity:1;fill-rule:evenodd;stroke:none"
             id="path146" />
        </g>
        <g
           id="g148"
           transform="translate(751.8809,259.2676)">
          <path
             inkscape:connector-curvature="0"
             d="m 0,0 0,56.401 0.372,0 0,-56.38 C 0.248,0.014 0.123,0.007 0,0"
             style="fill:#ffffff;fill-opacity:1;fill-rule:evenodd;stroke:none"
             id="path150" />
        </g>
        <g
           id="g152"
           transform="translate(808.9873,269.8472)">
          <path
             inkscape:connector-curvature="0"
             d="M 0,0 C -0.261,-1.521 -0.521,-3.043 -0.785,-4.564 -0.864,-5.018 -1,-5.466 -1.034,-5.923 c -0.047,-0.623 -0.364,-0.692 -0.974,-0.534 0.242,1.436 0.48,2.842 0.762,4.511 -0.732,-1.049 -1.299,-1.91 -1.923,-2.728 -0.181,-0.238 -0.521,-0.471 -0.797,-0.479 -0.173,-0.006 -0.423,0.383 -0.527,0.64 -0.301,0.742 -0.545,1.508 -1,2.272 -0.214,-1.213 -0.437,-2.424 -0.639,-3.637 -0.094,-0.562 -0.307,-0.863 -0.967,-0.531 0.346,2 0.686,4.011 1.054,6.017 0.033,0.181 0.252,0.327 0.384,0.489 0.197,-0.166 0.493,-0.293 0.573,-0.503 0.459,-1.207 0.868,-2.433 1.341,-3.788 0.908,1.319 1.733,2.561 2.612,3.763 0.206,0.283 0.59,0.436 0.894,0.648 C -0.161,0.145 -0.081,0.073 0,0"
             style="fill:#ffffff;fill-opacity:1;fill-rule:evenodd;stroke:none"
             id="path154" />
        </g>
        <g
           id="g156"
           transform="translate(792.958,265.877)">
          <path
             inkscape:connector-curvature="0"
             d="M 0,0 C -0.139,0.939 -0.262,1.771 -0.385,2.605 -0.442,2.609 -0.5,2.613 -0.559,2.617 -0.959,1.767 -1.358,0.917 -1.79,0 L 0,0 z M 0.254,3.992 C 0.602,1.846 0.948,-0.304 1.296,-2.453 0.587,-2.747 0.366,-2.47 0.25,-1.86 c -0.068,0.356 -0.282,0.907 -0.529,0.967 -1.231,0.302 -1.897,0.051 -2.242,-0.614 -0.268,-0.515 -0.32,-1.339 -1.375,-0.972 0.403,0.853 0.795,1.699 1.2,2.539 0.536,1.116 1.116,2.212 1.605,3.349 0.257,0.593 0.608,0.788 1.345,0.583"
             style="fill:#ffffff;fill-opacity:1;fill-rule:evenodd;stroke:none"
             id="path158" />
        </g>
        <g
           id="g160"
           transform="translate(778.9668,264.0723)">
          <path
             inkscape:connector-curvature="0"
             d="M 0,0 2.77,0 C 2.82,-0.078 2.872,-0.156 2.922,-0.234 2.754,-0.411 2.592,-0.735 2.416,-0.743 1.301,-0.789 0.183,-0.767 -1.039,-0.767 c 0.277,1.604 0.525,3.101 0.798,4.593 0.376,2.059 0.384,2.058 2.452,2.058 l 1.562,0 C 3.854,4.829 3.127,5.103 2.619,5.079 2.076,5.054 1.531,5.073 0.945,5.073 0.812,4.373 0.691,3.73 0.553,2.993 l 2.108,0 C 2.827,2.253 2.479,2.132 1.93,2.164 1.471,2.189 1.01,2.169 0.451,2.169 0.311,1.492 0.173,0.833 0,0"
             style="fill:#ffffff;fill-opacity:1;fill-rule:evenodd;stroke:none"
             id="path162" />
        </g>
        <g
           id="g164"
           transform="translate(768.3223,269.144)">
          <path
             inkscape:connector-curvature="0"
             d="m 0,0 -1.896,0 c -0.05,0.086 -0.1,0.173 -0.151,0.258 0.219,0.184 0.434,0.519 0.659,0.526 1.464,0.049 2.929,0.025 4.4,0.025 C 3.178,0.142 2.889,0.004 2.351,-0.006 0.935,-0.035 0.934,-0.049 0.687,-1.44 0.469,-2.686 0.242,-3.931 0.048,-5.18 -0.042,-5.764 -0.291,-5.992 -0.977,-5.715 -0.66,-3.867 -0.343,-2.008 0,0"
             style="fill:#ffffff;fill-opacity:1;fill-rule:evenodd;stroke:none"
             id="path166" />
        </g>
        <g
           id="g168"
           transform="translate(641.7295,291.0396)">
          <path
             inkscape:connector-curvature="0"
             d="m 0,0 c -0.029,-2.184 -0.177,-4.367 -0.248,-6.551 -0.034,-1.052 -0.006,-2.108 -0.006,-3.22 -0.733,0.263 -0.736,0.924 -0.754,1.473 -0.057,1.751 -0.059,3.504 -0.04,5.256 0.015,1.35 0.121,2.7 0.13,4.051 0.004,0.533 -0.145,1.068 -0.254,1.785 C -0.14,2.002 0.013,0.991 0,0 m -10.9,1.148 c -0.3,-0.838 -0.569,-1.69 -0.853,-2.534 -0.926,-2.751 -3.667,-3.689 -6.081,-2.039 -0.749,0.512 -1.405,1.166 -2.103,1.755 0.086,0.058 0.173,0.116 0.259,0.173 0.878,-0.316 1.733,-0.744 2.637,-0.926 1.748,-0.351 3.263,0.211 4.142,1.786 0.737,1.321 1.207,2.789 1.825,4.178 0.688,1.546 1.32,3.129 2.146,4.601 0.721,1.282 1.778,2.314 3.267,2.784 C -8.703,8.354 -9.64,4.664 -10.9,1.148 m -10.228,-14.891 c -1.263,0.718 -2.223,1.743 -2.967,2.96 -0.884,1.447 -1.625,2.987 -2.568,4.393 -0.974,1.448 -2.058,2.833 -3.207,4.147 -0.693,0.794 -1.635,1.297 -2.858,0.763 0.368,0.88 1.048,1.146 1.721,0.911 0.842,-0.294 1.792,-0.671 2.346,-1.313 1.211,-1.407 2.236,-2.98 3.272,-4.53 0.992,-1.48 1.794,-3.093 2.861,-4.512 3.077,-4.095 7.985,-3.074 10.485,-0.487 0.16,0.165 0.312,0.338 0.466,0.507 -1.458,-3.447 -6.132,-4.781 -9.551,-2.839 m -10.176,-1.733 c -0.022,-0.079 -0.044,-0.158 -0.065,-0.236 -0.335,0.252 -0.818,0.433 -0.979,0.768 -0.788,1.652 -1.717,3.282 -2.175,5.031 -1.126,4.286 -0.998,8.611 0.279,12.87 0.644,2.151 1.803,3.917 3.999,4.793 0.105,0.044 0.214,0.083 0.325,0.109 0.05,0.012 0.108,-0.015 0.275,-0.041 -3.754,-1.878 -4.254,-5.43 -4.775,-8.935 -0.559,-3.763 0.149,-7.401 1.398,-10.935 0.421,-1.194 1.136,-2.286 1.718,-3.424 m 33.8,19.931 c -0.35,2.032 -0.95,3.983 -2.187,5.672 -1.173,1.602 -2.707,2.502 -4.753,2.218 -1.493,-0.207 -2.81,-0.809 -3.91,-1.871 -1.557,-1.501 -2.459,-3.39 -3.227,-5.362 -0.605,-1.554 -1.126,-3.15 -1.834,-4.655 -0.854,-1.815 -2.403,-2.443 -4.236,-1.688 -0.785,0.322 -1.53,0.948 -2.064,1.619 -0.948,1.191 -1.672,2.558 -2.585,3.779 -0.945,1.263 -1.901,2.548 -3.04,3.628 -1.566,1.486 -3.47,1.681 -5.463,0.827 -2.291,-0.982 -3.587,-2.818 -4.33,-5.104 -1.105,-3.396 -1.354,-6.888 -0.984,-10.419 0.284,-2.711 0.919,-5.341 2.319,-7.718 0.36,-0.611 0.804,-1.219 1.342,-1.67 0.986,-0.824 2.25,-0.397 2.554,0.847 0.138,0.567 0.17,1.227 0.02,1.783 -0.395,1.47 -0.905,2.909 -1.389,4.354 -0.616,1.836 -1.188,3.684 -1.028,5.65 0.038,0.452 0.315,0.886 0.482,1.328 0.42,-0.216 0.896,-0.364 1.248,-0.661 1.666,-1.402 2.663,-3.299 3.755,-5.136 0.967,-1.629 1.897,-3.32 3.113,-4.758 3.768,-4.458 11.155,-3.336 13.201,1.679 0.337,0.825 0.708,1.639 1.004,2.478 0.698,1.98 1.271,4.01 2.064,5.95 0.809,1.977 2.22,3.5 4.203,4.394 0.96,0.433 1.364,0.14 1.327,-0.895 -0.066,-1.785 -0.161,-3.568 -0.244,-5.353 0.008,0 0.017,0 0.026,-0.001 0,-0.721 -0.031,-1.444 0.008,-2.164 0.045,-0.831 0.078,-1.674 0.248,-2.486 0.193,-0.928 0.733,-1.655 1.754,-1.795 0.934,-0.128 1.638,0.358 2.08,1.117 0.31,0.533 0.528,1.158 0.633,1.769 0.718,4.217 0.621,8.437 -0.107,12.644"
             style="fill:#ffffff;fill-opacity:1;fill-rule:evenodd;stroke:none"
             id="path170" />
        </g>
        <g
           id="g172"
           transform="translate(680.8477,285.5483)">
          <path
             inkscape:connector-curvature="0"
             d="m 0,0 c -0.145,-0.88 -0.665,-1.444 -1.575,-1.6 -0.084,-0.014 -0.169,-0.036 -0.254,-0.049 -2.527,-0.393 -3.576,0.426 -3.667,2.976 -0.041,1.086 0.044,2.184 0.169,3.264 0.108,0.931 0.711,1.515 1.648,1.619 0.654,0.073 1.328,0.081 1.98,0.006 C -0.706,6.103 -0.161,5.549 0.005,4.547 0.126,3.813 0.171,3.064 0.252,2.305 0.172,1.54 0.125,0.763 0,0 M 2.6,5.135 C 2.393,7.045 1.129,8.198 -0.752,8.439 -2.02,8.601 -3.343,8.601 -4.609,8.434 -6.49,8.185 -7.743,7.022 -7.943,5.112 -8.128,3.354 -8.225,1.546 -8.02,-0.201 c 0.289,-2.444 1.73,-3.584 4.199,-3.758 0.373,-0.026 0.747,-0.039 1.121,-0.058 0.375,0.017 0.748,0.029 1.121,0.055 2.544,0.177 3.966,1.289 4.264,3.785 C 2.894,1.568 2.79,3.378 2.6,5.135"
             style="fill:#ffffff;fill-opacity:1;fill-rule:evenodd;stroke:none"
             id="path174" />
        </g>
        <g
           id="g176"
           transform="translate(724.7871,283.8652)">
          <path
             inkscape:connector-curvature="0"
             d="m 0,0 c -0.994,0.099 -1.545,0.743 -1.56,1.632 -0.015,0.956 0.431,1.6 1.449,1.71 C 0.984,3.459 2.103,3.368 3.211,3.368 3.229,3.29 3.247,3.211 3.265,3.132 3.277,3.108 3.302,3.083 3.303,3.059 3.485,0.375 3.175,-0.318 0,0 M 5.933,6.44 C 5.839,8.369 4.786,9.696 2.89,9.995 1.376,10.233 -0.198,10.203 -1.738,10.133 -3.068,10.073 -3.041,9.975 -3.036,8.589 -3.034,7.956 -2.876,7.756 -2.179,7.83 -0.985,7.957 0.23,8.006 1.428,7.934 2.901,7.845 3.482,6.963 3.255,5.531 1.926,5.531 0.603,5.633 -0.699,5.509 -2.866,5.303 -4.162,3.886 -4.236,1.847 -4.316,-0.3 -3.27,-1.71 -1.066,-2.099 0.136,-2.31 1.412,-2.352 2.621,-2.203 c 2.193,0.271 3.242,1.495 3.33,3.718 0.066,1.64 0.062,3.287 -0.018,4.925"
             style="fill:#ffffff;fill-opacity:1;fill-rule:evenodd;stroke:none"
             id="path178" />
        </g>
        <g
           id="g180"
           transform="translate(792.958,265.877)">
          <path
             inkscape:connector-curvature="0"
             d="m 0,0 -1.79,0 c 0.432,0.917 0.831,1.767 1.231,2.617 C -0.5,2.613 -0.442,2.609 -0.385,2.605 -0.262,1.771 -0.139,0.939 0,0"
             style="fill:#000000;fill-opacity:1;fill-rule:evenodd;stroke:none"
             id="path182" />
        </g>
      </g>
    </g>
  </g>
</svg>
